Roboto-Delta-GRAD-250.ufo
<glyph name="quotedbl" format="2">
	<unicode hex="0022"/>
	<advance width="760"/>
	<outline>
		<contour>
			<point x="142" y="966" type="line"/>
			<point x="132" y="1320" type="line"/>
			<point x="132" y="1456" type="line"/>
			<point x="254" y="1456" type="line"/>
			<point x="254" y="1320" type="line"/>
			<point x="244" y="966" type="line"/>
		</contour>
		<contour>
			<point x="515" y="966" type="line"/>
			<point x="505" y="1320" type="line"/>
			<point x="505" y="1456" type="line"/>
			<point x="628" y="1456" type="line"/>
			<point x="628" y="1320" type="line"/>
			<point x="618" y="966" type="line"/>
		</contour>
	</outline>
</glyph>
<glyph name="quotesingle" format="2">
	<unicode hex="0027"/>
	<advance width="400"/>
	<outline>
		<contour>
			<point x="148" y="966" type="line"/>
			<point x="132" y="1320" type="line"/>
			<point x="132" y="1456" type="line"/>
			<point x="268" y="1456" type="line"/>
			<point x="268" y="1320" type="line"/>
			<point x="251" y="966" type="line"/>
		</contour>
	</outline>
</glyph>
<glyph name="asterisk" format="2">
	<unicode hex="002A"/>
	<advance width="1080"/>
	<outline>
		<contour>
			<point x="62" y="1079" type="line"/>
			<point x="102" y="1202" type="line"/>
			<point x="500" y="1044" type="line"/>
			<point x="474" y="1476" type="line"/>
			<point x="605" y="1476" type="line"/>
			<point x="579" y="1044" type="line"/>
			<point x="978" y="1202" type="line"/>
			<point x="1018" y="1079" type="line"/>
			<point x="604" y="967" type="line"/>
			<point x="876" y="639" type="line"/>
			<point x="771" y="563" type="line"/>
			<point x="539" y="921" type="line"/>
			<point x="308" y="563" type="line"/>
			<point x="203" y="639" type="line"/>
			<point x="475" y="967" type="line"/>
		</contour>
	</outline>
</glyph>
<glyph name="plus" format="2">
	<unicode hex="002B"/>
	<advance width="1024"/>
	<outline>
		<contour>
			<point x="64" y="617" type="line"/>
			<point x="64" y="729" type="line"/>
			<point x="960" y="729" type="line"/>
			<point x="960" y="617" type="line"/>
		</contour>
		<contour>
			<point x="451" y="206" type="line"/>
			<point x="451" y="1141" type="line"/>
			<point x="574" y="1141" type="line"/>
			<point x="574" y="206" type="line"/>
		</contour>
	</outline>
</glyph>
<glyph name="hyphen" format="2">
	<unicode hex="002D"/>
	<advance width="714"/>
	<outline>
		<contour>
			<point x="76" y="571" type="line"/>
			<point x="76" y="689" type="line"/>
			<point x="638" y="689" type="line"/>
			<point x="638" y="571" type="line"/>
		</contour>
	</outline>
</glyph>
<glyph name="two" format="2">
	<unicode hex="0032"/>
	<advance width="1156"/>
	<outline>
		<contour>
			<point x="116" y="0" type="line"/>
			<point x="116" y="96" type="line"/>
			<point x="673" y="695" type="line" smooth="yes"/>
			<point x="772" y="801"/>
			<point x="886" y="977"/>
			<point x="886" y="1080" type="qcurve" smooth="yes"/>
			<point x="886" y="1192"/>
			<point x="730" y="1365"/>
			<point x="585" y="1365" type="qcurve" smooth="yes"/>
			<point x="437" y="1365"/>
			<point x="258" y="1186"/>
			<point x="258" y="1030" type="qcurve" smooth="yes"/>
			<point x="258" y="1020" type="line"/>
			<point x="129" y="1020" type="line"/>
			<point x="129" y="1031" type="line" smooth="yes"/>
			<point x="129" y="1230"/>
			<point x="379" y="1486"/>
			<point x="585" y="1486" type="qcurve" smooth="yes"/>
			<point x="784" y="1486"/>
			<point x="1016" y="1247"/>
			<point x="1016" y="1087" type="qcurve" smooth="yes"/>
			<point x="1016" y="951"/>
			<point x="855" y="722"/>
			<point x="734" y="595" type="qcurve" smooth="yes"/>
			<point x="279" y="114" type="line"/>
			<point x="1048" y="114" type="line"/>
			<point x="1048" y="0" type="line"/>
		</contour>
	</outline>
</glyph>
<glyph name="six" format="2">
	<unicode hex="0036"/>
	<advance width="1156"/>
	<outline>
		<contour>
			<point x="108" y="614" type="qcurve" smooth="yes"/>
			<point x="108" y="644" type="line" smooth="yes"/>
			<point x="108" y="1020"/>
			<point x="501" y="1486"/>
			<point x="881" y="1486" type="qcurve" smooth="yes"/>
			<point x="900" y="1486" type="line"/>
			<point x="900" y="1366" type="line"/>
			<point x="881" y="1366" type="line" smooth="yes"/>
			<point x="571" y="1366"/>
			<point x="236" y="1006"/>
			<point x="236" y="648" type="qcurve" smooth="yes"/>
			<point x="236" y="610" type="line" smooth="yes"/>
			<point x="236" y="328"/>
			<point x="432" y="91"/>
			<point x="600" y="91" type="qcurve" smooth="yes"/>
			<point x="768" y="91"/>
			<point x="934" y="284"/>
			<point x="934" y="458" type="qcurve" smooth="yes"/>
			<point x="934" y="632"/>
			<point x="768" y="830"/>
			<point x="600" y="830" type="qcurve" smooth="yes"/>
			<point x="443" y="830"/>
			<point x="232" y="629"/>
			<point x="232" y="508" type="qcurve"/>
			<point x="183" y="508" type="line"/>
			<point x="183" y="676"/>
			<point x="425" y="951"/>
			<point x="631" y="951" type="qcurve" smooth="yes"/>
			<point x="838" y="951"/>
			<point x="1064" y="681"/>
			<point x="1064" y="458" type="qcurve" smooth="yes"/>
			<point x="1064" y="237"/>
			<point x="815" y="-30"/>
			<point x="600" y="-30" type="qcurve" smooth="yes"/>
			<point x="384" y="-30"/>
			<point x="108" y="276"/>
		</contour>
	</outline>
</glyph>
<glyph name="nine" format="2">
	<unicode hex="0039"/>
	<advance width="1156"/>
	<outline>
		<contour>
			<point x="92" y="1001" type="qcurve" smooth="yes"/>
			<point x="92" y="1221"/>
			<point x="342" y="1486"/>
			<point x="556" y="1486" type="qcurve" smooth="yes"/>
			<point x="773" y="1486"/>
			<point x="1048" y="1181"/>
			<point x="1048" y="842" type="qcurve" smooth="yes"/>
			<point x="1048" y="812" type="line" smooth="yes"/>
			<point x="1048" y="462"/>
			<point x="657" y="0"/>
			<point x="275" y="0" type="qcurve" smooth="yes"/>
			<point x="256" y="0" type="line"/>
			<point x="256" y="121" type="line"/>
			<point x="274" y="121" type="line" smooth="yes"/>
			<point x="587" y="121"/>
			<point x="920" y="475"/>
			<point x="920" y="808" type="qcurve" smooth="yes"/>
			<point x="920" y="847" type="line" smooth="yes"/>
			<point x="920" y="1128"/>
			<point x="725" y="1366"/>
			<point x="556" y="1366" type="qcurve" smooth="yes"/>
			<point x="388" y="1366"/>
			<point x="221" y="1173"/>
			<point x="221" y="1001" type="qcurve" smooth="yes"/>
			<point x="221" y="829"/>
			<point x="389" y="633"/>
			<point x="557" y="633" type="qcurve" smooth="yes"/>
			<point x="715" y="633"/>
			<point x="926" y="831"/>
			<point x="925" y="954" type="qcurve"/>
			<point x="973" y="954" type="line"/>
			<point x="974" y="785"/>
			<point x="732" y="512"/>
			<point x="526" y="512" type="qcurve" smooth="yes"/>
			<point x="318" y="512"/>
			<point x="92" y="781"/>
		</contour>
	</outline>
</glyph>
<glyph name="semicolon" format="2">
	<unicode hex="003B"/>
	<advance width="600"/>
	<outline>
		<contour>
			<point x="127" y="-223" type="line"/>
			<point x="177" y="-168"/>
			<point x="246" y="-28"/>
			<point x="246" y="70" type="qcurve" smooth="yes"/>
			<point x="246" y="220" type="line"/>
			<point x="369" y="220" type="line"/>
			<point x="369" y="70" type="line" smooth="yes"/>
			<point x="369" y="-42"/>
			<point x="268" y="-217"/>
			<point x="199" y="-274" type="qcurve"/>
		</contour>
		<contour>
			<point x="208" y="980" type="qcurve" smooth="yes"/>
			<point x="208" y="1016"/>
			<point x="255" y="1068"/>
			<point x="300" y="1068" type="qcurve" smooth="yes"/>
			<point x="344" y="1068"/>
			<point x="391" y="1016"/>
			<point x="391" y="980" type="qcurve" smooth="yes"/>
			<point x="391" y="944"/>
			<point x="344" y="892"/>
			<point x="300" y="892" type="qcurve" smooth="yes"/>
			<point x="255" y="892"/>
			<point x="208" y="944"/>
		</contour>
	</outline>
</glyph>
<glyph name="greater" format="2">
	<unicode hex="003E"/>
	<advance width="1024"/>
	<outline>
		<contour>
			<point x="152" y="263" type="line"/>
			<point x="152" y="395" type="line"/>
			<point x="752" y="670" type="line"/>
			<point x="152" y="943" type="line"/>
			<point x="152" y="1082" type="line"/>
			<point x="904" y="723" type="line"/>
			<point x="904" y="623" type="line"/>
		</contour>
	</outline>
</glyph>
<glyph name="C" format="2">
	<unicode hex="0043"/>
	<advance width="1359"/>
	<outline>
		<contour>
			<point x="133" y="682" type="qcurve" smooth="yes"/>
			<point x="133" y="774" type="line" smooth="yes"/>
			<point x="133" y="1110"/>
			<point x="464" y="1486"/>
			<point x="718" y="1486" type="qcurve" smooth="yes"/>
			<point x="973" y="1486"/>
			<point x="1253" y="1202"/>
			<point x="1253" y="1000" type="qcurve" smooth="yes"/>
			<point x="1253" y="990" type="line"/>
			<point x="1122" y="990" type="line"/>
			<point x="1122" y="1000" type="line" smooth="yes"/>
			<point x="1122" y="1154"/>
			<point x="921" y="1360"/>
			<point x="718" y="1360" type="qcurve" smooth="yes"/>
			<point x="520" y="1360"/>
			<point x="265" y="1065"/>
			<point x="265" y="773" type="qcurve" smooth="yes"/>
			<point x="265" y="682" type="line" smooth="yes"/>
			<point x="265" y="407"/>
			<point x="517" y="95"/>
			<point x="718" y="95" type="qcurve" smooth="yes"/>
			<point x="909" y="95"/>
			<point x="1110" y="304"/>
			<point x="1121" y="456" type="qcurve" smooth="yes"/>
			<point x="1122" y="466" type="line"/>
			<point x="1253" y="466" type="line"/>
			<point x="1252" y="456" type="line" smooth="yes"/>
			<point x="1239" y="256"/>
			<point x="969" y="-30"/>
			<point x="718" y="-30" type="qcurve" smooth="yes"/>
			<point x="463" y="-30"/>
			<point x="133" y="346"/>
		</contour>
	</outline>
	<anchor name="bottom" x="709" y="0"/>
	<anchor name="top" x="719" y="1456"/>
</glyph>
<glyph name="E" format="2">
	<unicode hex="0045"/>
	<advance width="1162"/>
	<outline>
		<contour>
			<point x="195" y="0" type="line"/>
			<point x="195" y="1456" type="line"/>
			<point x="1061" y="1456" type="line"/>
			<point x="1061" y="1335" type="line"/>
			<point x="325" y="1335" type="line"/>
			<point x="325" y="120" type="line"/>
			<point x="1071" y="120" type="line"/>
			<point x="1071" y="0" type="line"/>
		</contour>
		<contour>
			<point x="260" y="691" type="line"/>
			<point x="260" y="811" type="line"/>
			<point x="969" y="811" type="line"/>
			<point x="969" y="691" type="line"/>
		</contour>
	</outline>
	<anchor name="bottom" x="633" y="0"/>
	<anchor name="ogonek" x="1071" y="0"/>
	<anchor name="top" x="646" y="1456"/>
	<anchor name="tonos" x="-50" y="1074"/>
</glyph>
<glyph name="M" format="2">
	<unicode hex="004D"/>
	<advance width="1790"/>
	<outline>
		<contour>
			<point x="213" y="0" type="line"/>
			<point x="213" y="1456" type="line"/>
			<point x="385" y="1456" type="line"/>
			<point x="847" y="285" type="line" smooth="yes"/>
			<point x="859" y="255"/>
			<point x="882" y="190"/>
			<point x="891" y="160" type="qcurve"/>
			<point x="899" y="160" type="line"/>
			<point x="908" y="190"/>
			<point x="931" y="255"/>
			<point x="943" y="285" type="qcurve" smooth="yes"/>
			<point x="1405" y="1456" type="line"/>
			<point x="1577" y="1456" type="line"/>
			<point x="1577" y="0" type="line"/>
			<point x="1450" y="0" type="line"/>
			<point x="1450" y="1137" type="line" smooth="yes"/>
			<point x="1450" y="1167"/>
			<point x="1452" y="1242"/>
			<point x="1454" y="1272" type="qcurve"/>
			<point x="1446" y="1272" type="line"/>
			<point x="1439" y="1242"/>
			<point x="1412" y="1167"/>
			<point x="1400" y="1137" type="qcurve" smooth="yes"/>
			<point x="952" y="0" type="line"/>
			<point x="836" y="0" type="line"/>
			<point x="387" y="1137" type="line" smooth="yes"/>
			<point x="375" y="1167"/>
			<point x="348" y="1242"/>
			<point x="341" y="1272" type="qcurve"/>
			<point x="333" y="1272" type="line"/>
			<point x="335" y="1242"/>
			<point x="337" y="1167"/>
			<point x="337" y="1137" type="qcurve" smooth="yes"/>
			<point x="337" y="0" type="line"/>
		</contour>
	</outline>
	<anchor name="bottom" x="893" y="0"/>
	<anchor name="top" x="894" y="1456"/>
</glyph>
<glyph name="Q" format="2">
	<unicode hex="0051"/>
	<advance width="1460"/>
	<outline>
		<contour>
			<point x="133" y="685" type="qcurve" smooth="yes"/>
			<point x="133" y="770" type="line" smooth="yes"/>
			<point x="133" y="1108"/>
			<point x="465" y="1486"/>
			<point x="730" y="1486" type="qcurve" smooth="yes"/>
			<point x="996" y="1486"/>
			<point x="1328" y="1108"/>
			<point x="1328" y="770" type="qcurve" smooth="yes"/>
			<point x="1328" y="685" type="line" smooth="yes"/>
			<point x="1328" y="347"/>
			<point x="996" y="-30"/>
			<point x="730" y="-30" type="qcurve" smooth="yes"/>
			<point x="465" y="-30"/>
			<point x="133" y="347"/>
		</contour>
		<contour>
			<point x="265" y="684" type="line" smooth="yes"/>
			<point x="265" y="409"/>
			<point x="518" y="95"/>
			<point x="730" y="95" type="qcurve" smooth="yes"/>
			<point x="943" y="95"/>
			<point x="1195" y="409"/>
			<point x="1195" y="684" type="qcurve" smooth="yes"/>
			<point x="1195" y="771" type="line" smooth="yes"/>
			<point x="1195" y="1046"/>
			<point x="943" y="1360"/>
			<point x="730" y="1360" type="qcurve" smooth="yes"/>
			<point x="518" y="1360"/>
			<point x="265" y="1046"/>
			<point x="265" y="771" type="qcurve" smooth="yes"/>
		</contour>
		<contour>
			<point x="1208" y="-225" type="line"/>
			<point x="888" y="30" type="line"/>
			<point x="984" y="126" type="line"/>
			<point x="1306" y="-126" type="line"/>
		</contour>
	</outline>
	<anchor name="bottom" x="730" y="0"/>
	<anchor name="top" x="730" y="1456"/>
</glyph>
<glyph name="W" format="2">
	<unicode hex="0057"/>
	<advance width="1812"/>
	<outline>
		<contour>
			<point x="439" y="-10" type="line"/>
			<point x="81" y="1456" type="line"/>
			<point x="211" y="1456" type="line"/>
			<point x="486" y="286" type="line" smooth="yes"/>
			<point x="494" y="252"/>
			<point x="503" y="211"/>
			<point x="508" y="178" type="qcurve"/>
			<point x="519" y="178" type="line"/>
			<point x="524" y="211"/>
			<point x="533" y="252"/>
			<point x="542" y="286" type="qcurve" smooth="yes"/>
			<point x="836" y="1456" type="line"/>
			<point x="972" y="1456" type="line"/>
			<point x="1278" y="285" type="line" smooth="yes"/>
			<point x="1287" y="252"/>
			<point x="1297" y="211"/>
			<point x="1302" y="178" type="qcurve"/>
			<point x="1312" y="178" type="line"/>
			<point x="1317" y="211"/>
			<point x="1326" y="251"/>
			<point x="1334" y="285" type="qcurve" smooth="yes"/>
			<point x="1601" y="1456" type="line"/>
			<point x="1731" y="1456" type="line"/>
			<point x="1373" y="-10" type="line"/>
			<point x="1242" y="-10" type="line"/>
			<point x="937" y="1157" type="line" smooth="yes"/>
			<point x="928" y="1191"/>
			<point x="914" y="1250"/>
			<point x="907" y="1283" type="qcurve"/>
			<point x="899" y="1283" type="line"/>
			<point x="893" y="1250"/>
			<point x="879" y="1191"/>
			<point x="869" y="1157" type="qcurve" smooth="yes"/>
			<point x="570" y="-10" type="line"/>
		</contour>
	</outline>
	<anchor name="bottom" x="904" y="0"/>
	<anchor name="top" x="905" y="1456"/>
</glyph>
<glyph name="h" format="2">
	<unicode hex="0068"/>
	<advance width="1138"/>
	<outline>
		<contour>
			<point x="307" y="0" type="line"/>
			<point x="181" y="0" type="line"/>
			<point x="181" y="1456" type="line"/>
			<point x="307" y="1456" type="line"/>
		</contour>
		<contour>
			<point x="244" y="811" type="line"/>
			<point x="324" y="948"/>
			<point x="525" y="1072"/>
			<point x="645" y="1072" type="qcurve" smooth="yes"/>
			<point x="796" y="1072"/>
			<point x="967" y="899"/>
			<point x="967" y="673" type="qcurve" smooth="yes"/>
			<point x="967" y="0" type="line"/>
			<point x="840" y="0" type="line"/>
			<point x="840" y="675" type="line" smooth="yes"/>
			<point x="840" y="832"/>
			<point x="720" y="952"/>
			<point x="600" y="952" type="qcurve" smooth="yes"/>
			<point x="494" y="952"/>
			<point x="329" y="820"/>
			<point x="244" y="652" type="qcurve"/>
		</contour>
	</outline>
	<anchor name="bottom" x="568" y="0"/>
	<anchor name="center" x="351" y="1239"/>
	<anchor name="top" x="244" y="1456"/>
	<anchor name="engtail" x="903" y="0"/>
</glyph>
<glyph name="r" format="2">
	<unicode hex="0072"/>
	<advance width="700"/>
	<outline>
		<contour>
			<point x="181" y="0" type="line"/>
			<point x="181" y="1052" type="line"/>
			<point x="295" y="1052" type="line"/>
			<point x="307" y="849" type="line"/>
			<point x="307" y="0" type="line"/>
		</contour>
		<contour>
			<point x="244" y="566" type="qcurve"/>
			<point x="244" y="710" type="line"/>
			<point x="322" y="955"/>
			<point x="480" y="1082"/>
			<point x="572" y="1082" type="qcurve" smooth="yes"/>
			<point x="597" y="1082"/>
			<point x="648" y="1071"/>
			<point x="659" y="1068" type="qcurve"/>
			<point x="659" y="936" type="line"/>
			<point x="641" y="940"/>
			<point x="592" y="946"/>
			<point x="564" y="946" type="qcurve" smooth="yes"/>
			<point x="467" y="946"/>
			<point x="326" y="780"/>
		</contour>
	</outline>
	<anchor name="bottom" x="342.1332465942" y="0"/>
	<anchor name="top" x="402.4542323588" y="1052"/>
</glyph>
<glyph name="z" format="2">
	<unicode hex="007A"/>
	<advance width="992"/>
	<outline>
		<contour>
			<point x="97" y="0" type="line"/>
			<point x="97" y="92" type="line"/>
			<point x="718" y="947" type="line"/>
			<point x="105" y="947" type="line"/>
			<point x="105" y="1052" type="line"/>
			<point x="872" y="1052" type="line"/>
			<point x="872" y="961" type="line"/>
			<point x="249" y="104" type="line"/>
			<point x="902" y="104" type="line"/>
			<point x="902" y="0" type="line"/>
		</contour>
	</outline>
	<anchor name="bottom" x="492" y="0"/>
	<anchor name="top" x="492" y="1052"/>
</glyph>
<glyph name="asciitilde" format="2">
	<unicode hex="007E"/>
	<advance width="1024"/>
	<outline>
		<contour>
			<point x="69" y="564" type="qcurve"/>
			<point x="69" y="704" type="line"/>
			<point x="111" y="757"/>
			<point x="236" y="816"/>
			<point x="300" y="817" type="qcurve" smooth="yes"/>
			<point x="374" y="817"/>
			<point x="461" y="777"/>
			<point x="524" y="744" type="qcurve" smooth="yes"/>
			<point x="582" y="713"/>
			<point x="664" y="674"/>
			<point x="734" y="674" type="qcurve" smooth="yes"/>
			<point x="796" y="674"/>
			<point x="911" y="743"/>
			<point x="954" y="802" type="qcurve"/>
			<point x="955" y="661" type="line"/>
			<point x="912" y="610"/>
			<point x="798" y="549"/>
			<point x="735" y="549" type="qcurve" smooth="yes"/>
			<point x="665" y="549"/>
			<point x="582" y="588"/>
			<point x="524" y="619" type="qcurve" smooth="yes"/>
			<point x="460" y="652"/>
			<point x="374" y="691"/>
			<point x="300" y="691" type="qcurve" smooth="yes"/>
			<point x="237" y="691"/>
			<point x="112" y="624"/>
		</contour>
	</outline>
</glyph>
<glyph name="exclamdown" format="2">
	<unicode hex="00A1"/>
	<advance width="620"/>
	<outline>
		<contour>
			<point x="402" y="1084" type="qcurve" smooth="yes"/>
			<point x="402" y="1048"/>
			<point x="354" y="996"/>
			<point x="309" y="996" type="qcurve" smooth="yes"/>
			<point x="265" y="996"/>
			<point x="218" y="1048"/>
			<point x="218" y="1084" type="qcurve" smooth="yes"/>
			<point x="218" y="1120"/>
			<point x="265" y="1172"/>
			<point x="309" y="1172" type="qcurve" smooth="yes"/>
			<point x="354" y="1172"/>
			<point x="402" y="1120"/>
		</contour>
		<contour>
			<point x="364" y="740" type="line"/>
			<point x="374" y="-306" type="line"/>
			<point x="242" y="-306" type="line"/>
			<point x="252" y="740" type="line"/>
		</contour>
	</outline>
</glyph>
<glyph name="brokenbar" format="2">
	<unicode hex="00A6"/>
	<advance width="592"/>
	<outline>
		<contour>
			<point x="358" y="-416" type="line"/>
			<point x="234" y="-416" type="line"/>
			<point x="234" y="359" type="line"/>
			<point x="358" y="359" type="line"/>
		</contour>
		<contour>
			<point x="358" y="1536" type="line"/>
			<point x="358" y="761" type="line"/>
			<point x="234" y="761" type="line"/>
			<point x="234" y="1536" type="line"/>
		</contour>
	</outline>
	<guideline y="901" identifier="jmguX8NWKI"/>
	<guideline y="555" identifier="Z0RZpP7MTi"/>
</glyph>
<glyph name="guillemotleft" format="2">
	<unicode hex="00AB"/>
	<advance width="1092"/>
	<outline>
		<contour>
			<point x="128" y="531" type="line"/>
			<point x="128" y="573" type="line"/>
			<point x="421" y="949" type="line"/>
			<point x="545" y="949" type="line"/>
			<point x="265" y="551" type="line"/>
			<point x="545" y="153" type="line"/>
			<point x="421" y="153" type="line"/>
		</contour>
		<contour>
			<point x="568" y="531" type="line"/>
			<point x="568" y="573" type="line"/>
			<point x="861" y="949" type="line"/>
			<point x="985" y="949" type="line"/>
			<point x="705" y="551" type="line"/>
			<point x="985" y="153" type="line"/>
			<point x="861" y="153" type="line"/>
		</contour>
	</outline>
	<guideline y="901" identifier="ZftBQarVKw"/>
	<guideline y="555" identifier="MVJpdoVRVd"/>
</glyph>
<glyph name="plusminus" format="2">
	<unicode hex="00B1"/>
	<advance width="1024"/>
	<outline>
		<contour>
			<point x="63" y="636" type="line"/>
			<point x="63" y="748" type="line"/>
			<point x="960" y="748" type="line"/>
			<point x="960" y="636" type="line"/>
		</contour>
		<contour>
			<point x="451" y="272" type="line"/>
			<point x="451" y="1128" type="line"/>
			<point x="574" y="1128" type="line"/>
			<point x="574" y="272" type="line"/>
		</contour>
		<contour>
			<point x="60" y="25" type="line"/>
			<point x="60" y="137" type="line"/>
			<point x="965" y="137" type="line"/>
			<point x="965" y="25" type="line"/>
		</contour>
	</outline>
</glyph>
<glyph name="paragraph" format="2">
	<unicode hex="00B6"/>
	<advance width="1261"/>
	<outline>
		<contour>
			<point x="723" y="-146" type="line"/>
			<point x="596" y="-146" type="line"/>
			<point x="596" y="849" type="line"/>
			<point x="517" y="849" type="line" smooth="yes"/>
			<point x="361" y="849"/>
			<point x="195" y="1021"/>
			<point x="195" y="1152" type="qcurve" smooth="yes"/>
			<point x="195" y="1281"/>
			<point x="361" y="1456"/>
			<point x="517" y="1456" type="qcurve" smooth="yes"/>
			<point x="723" y="1456" type="line"/>
		</contour>
		<contour>
			<point x="885" y="1459" type="line"/>
			<point x="1012" y="1459" type="line"/>
			<point x="1012" y="-146" type="line"/>
			<point x="885" y="-146" type="line"/>
		</contour>
	</outline>
	<guideline y="901" identifier="27539Lsr1A"/>
	<guideline y="555" identifier="e34wUdCmXR"/>
</glyph>
<glyph name="onesuperior" format="2">
	<unicode hex="00B9"/>
	<advance width="751"/>
	<outline>
		<contour>
			<point x="123" y="1251" type="line"/>
			<point x="123" y="1372" type="line"/>
			<point x="451" y="1486" type="line"/>
			<point x="485" y="1486" type="line"/>
			<point x="485" y="697" type="line"/>
			<point x="374" y="697" type="line"/>
			<point x="374" y="1339" type="line"/>
		</contour>
	</outline>
</glyph>
<glyph name="questiondown" format="2">
	<unicode hex="00BF"/>
	<advance width="968"/>
	<outline>
		<contour>
			<point x="616" y="1082" type="qcurve" smooth="yes"/>
			<point x="616" y="1046"/>
			<point x="569" y="994"/>
			<point x="524" y="994" type="qcurve" smooth="yes"/>
			<point x="480" y="994"/>
			<point x="433" y="1046"/>
			<point x="433" y="1082" type="qcurve" smooth="yes"/>
			<point x="433" y="1118"/>
			<point x="480" y="1170"/>
			<point x="524" y="1170" type="qcurve" smooth="yes"/>
			<point x="569" y="1170"/>
			<point x="616" y="1118"/>
		</contour>
		<contour>
			<point x="888" y="53" type="line"/>
			<point x="888" y="33" type="line" smooth="yes"/>
			<point x="888" y="-131"/>
			<point x="688" y="-328"/>
			<point x="498" y="-328" type="qcurve" smooth="yes"/>
			<point x="307" y="-328"/>
			<point x="114" y="-122"/>
			<point x="114" y="48" type="qcurve" smooth="yes"/>
			<point x="114" y="164"/>
			<point x="234" y="360"/>
			<point x="321" y="434" type="qcurve" smooth="yes"/>
			<point x="420" y="520"/>
			<point x="466" y="632"/>
			<point x="466" y="708" type="qcurve" smooth="yes"/>
			<point x="466" y="738" type="line"/>
			<point x="593" y="738" type="line"/>
			<point x="593" y="708" type="line" smooth="yes"/>
			<point x="593" y="594"/>
			<point x="533" y="471"/>
			<point x="425" y="373" type="qcurve" smooth="yes"/>
			<point x="331" y="288"/>
			<point x="241" y="141"/>
			<point x="241" y="48" type="qcurve" smooth="yes"/>
			<point x="241" y="-69"/>
			<point x="361" y="-204"/>
			<point x="498" y="-204" type="qcurve" smooth="yes"/>
			<point x="634" y="-204"/>
			<point x="762" y="-77"/>
			<point x="762" y="33" type="qcurve" smooth="yes"/>
			<point x="762" y="53" type="line"/>
		</contour>
	</outline>
	<guideline y="-181" identifier="apukwP5ffL"/>
	<guideline y="921" identifier="5ZPZZL8Rim"/>
</glyph>
<glyph name="germandbls" format="2">
	<unicode hex="00DF"/>
	<advance width="1186"/>
	<outline>
		<contour>
			<point name="hr00" x="311" y="1034" type="qcurve"/>
			<point x="311" y="0" type="line"/>
			<point x="186" y="0" type="line"/>
			<point x="186" y="1034" type="line" smooth="yes"/>
			<point x="186" y="1237"/>
			<point x="375" y="1476"/>
			<point x="552" y="1476" type="qcurve" smooth="yes"/>
			<point x="706" y="1476"/>
			<point x="891" y="1303"/>
			<point x="891" y="1157" type="qcurve" smooth="yes"/>
			<point x="891" y="1089"/>
			<point x="850" y="1000"/>
			<point x="813" y="954" type="qcurve" smooth="yes"/>
			<point x="782" y="916"/>
			<point x="706" y="826"/>
			<point x="706" y="787" type="qcurve" smooth="yes"/>
			<point x="706" y="752"/>
			<point x="841" y="648"/>
			<point x="929" y="586" type="qcurve" smooth="yes"/>
			<point x="1008" y="529"/>
			<point x="1101" y="395"/>
			<point x="1101" y="292" type="qcurve" smooth="yes"/>
			<point x="1101" y="167"/>
			<point x="907" y="-20"/>
			<point x="752" y="-20" type="qcurve" smooth="yes"/>
			<point x="604" y="-20"/>
			<point x="423" y="129"/>
			<point x="423" y="278" type="qcurve" smooth="yes"/>
			<point x="423" y="304" type="line"/>
			<point x="535" y="304" type="line"/>
			<point x="535" y="295" type="line" smooth="yes"/>
			<point x="535" y="191"/>
			<point x="650" y="95"/>
			<point x="753" y="95" type="qcurve" smooth="yes"/>
			<point x="865" y="95"/>
			<point x="982" y="205"/>
			<point x="982" y="292" type="qcurve" smooth="yes"/>
			<point x="982" y="364"/>
			<point x="897" y="463"/>
			<point x="830" y="513" type="qcurve" smooth="yes"/>
			<point x="751" y="570"/>
			<point x="587" y="703"/>
			<point x="587" y="787" type="qcurve" smooth="yes"/>
			<point x="587" y="847"/>
			<point x="678" y="964"/>
			<point x="710" y="1006" type="qcurve" smooth="yes"/>
			<point x="742" y="1048"/>
			<point x="771" y="1105"/>
			<point x="771" y="1157" type="qcurve" smooth="yes"/>
			<point x="771" y="1251"/>
			<point x="648" y="1360"/>
			<point x="551" y="1360" type="qcurve" smooth="yes"/>
			<point x="438" y="1360"/>
			<point x="311" y="1196"/>
		</contour>
	</outline>
</glyph>
<glyph name="OE" format="2">
	<unicode hex="0152"/>
	<advance width="1879"/>
	<outline>
		<contour>
			<point x="716" y="-21" type="qcurve" smooth="yes"/>
			<point x="463" y="-21"/>
			<point x="133" y="340"/>
			<point x="133" y="682" type="qcurve" smooth="yes"/>
			<point x="133" y="772" type="line" smooth="yes"/>
			<point x="133" y="1105"/>
			<point x="463" y="1477"/>
			<point x="716" y="1477" type="qcurve" smooth="yes"/>
			<point x="757" y="1477"/>
			<point x="899" y="1464"/>
			<point x="966" y="1456" type="qcurve"/>
			<point x="1778" y="1456" type="line"/>
			<point x="1778" y="1335" type="line"/>
			<point x="1041" y="1335" type="line"/>
			<point x="1041" y="120" type="line"/>
			<point x="1788" y="120" type="line"/>
			<point x="1788" y="0" type="line"/>
			<point x="966" y="0" type="line"/>
			<point x="906" y="-7"/>
			<point x="794" y="-21"/>
		</contour>
		<contour>
			<point x="716" y="92" type="qcurve" smooth="yes"/>
			<point x="775" y="92"/>
			<point x="869" y="102"/>
			<point x="911" y="108" type="qcurve"/>
			<point x="911" y="1344" type="line"/>
			<point x="855" y="1352"/>
			<point x="747" y="1360"/>
			<point x="716" y="1360" type="qcurve" smooth="yes"/>
			<point x="522" y="1360"/>
			<point x="265" y="1049"/>
			<point x="265" y="774" type="qcurve" smooth="yes"/>
			<point x="265" y="682" type="line" smooth="yes"/>
			<point x="265" y="399"/>
			<point x="522" y="92"/>
		</contour>
		<contour>
			<point x="976" y="691" type="line"/>
			<point x="976" y="811" type="line"/>
			<point x="1686" y="811" type="line"/>
			<point x="1686" y="691" type="line"/>
		</contour>
	</outline>
</glyph>
<glyph name="primemod" format="2">
	<unicode hex="02B9"/>
	<advance width="600"/>
	<outline>
		<contour>
			<point x="254.670212766" y="1502" type="line"/>
			<point x="383.6489361702" y="1502" type="line"/>
			<point x="277.961038961" y="991.7402597403" type="line"/>
			<point x="185.0779220779" y="995.7532467532" type="line"/>
		</contour>
	</outline>
</glyph>
<glyph name="gravecomb" format="2">
	<unicode hex="0300"/>
	<outline>
		<contour>
			<point x="67" y="1215" type="line"/>
			<point x="-233" y="1490" type="line"/>
			<point x="-139" y="1567" type="line"/>
			<point x="147" y="1276" type="line"/>
		</contour>
	</outline>
	<anchor name="_top" x="0" y="1052"/>
	<anchor name="top" x="0" y="1599.2913669065"/>
</glyph>
<glyph name="brevecomb" format="2">
	<unicode hex="0306"/>
	<outline>
		<contour>
			<point x="0" y="1197" type="qcurve"/>
			<point x="-112" y="1197"/>
			<point x="-292" y="1351"/>
			<point x="-335" y="1465" type="qcurve"/>
			<point x="-258" y="1505" type="line"/>
			<point x="-223" y="1435"/>
			<point x="-86" y="1310"/>
			<point x="0" y="1310" type="qcurve"/>
			<point x="87" y="1310"/>
			<point x="224" y="1435"/>
			<point x="259" y="1505" type="qcurve"/>
			<point x="336" y="1465" type="line"/>
			<point x="293" y="1351"/>
			<point x="113" y="1197"/>
		</contour>
	</outline>
	<anchor name="_top" x="0" y="1052"/>
	<anchor name="top" x="0" y="1518"/>
</glyph>
<glyph name="dieresiscomb" format="2">
	<unicode hex="0308"/>
	<outline>
		<contour>
			<point x="-293" y="1288" type="qcurve" smooth="yes"/>
			<point x="-293" y="1320"/>
			<point x="-253" y="1363"/>
			<point x="-216" y="1363" type="qcurve" smooth="yes"/>
			<point x="-178" y="1363"/>
			<point x="-139" y="1320"/>
			<point x="-139" y="1288" type="qcurve" smooth="yes"/>
			<point x="-139" y="1258"/>
			<point x="-178" y="1215"/>
			<point x="-216" y="1215" type="qcurve" smooth="yes"/>
			<point x="-253" y="1215"/>
			<point x="-293" y="1258"/>
		</contour>
		<contour>
			<point x="138" y="1288" type="qcurve" smooth="yes"/>
			<point x="138" y="1320"/>
			<point x="177" y="1363"/>
			<point x="215" y="1363" type="qcurve" smooth="yes"/>
			<point x="252" y="1363"/>
			<point x="292" y="1320"/>
			<point x="292" y="1288" type="qcurve" smooth="yes"/>
			<point x="292" y="1258"/>
			<point x="252" y="1215"/>
			<point x="215" y="1215" type="qcurve" smooth="yes"/>
			<point x="177" y="1215"/>
			<point x="138" y="1258"/>
		</contour>
	</outline>
	<anchor name="_GRK_top" x="0" y="1052"/>
	<anchor name="_top" x="0" y="1052"/>
	<anchor name="top" x="0" y="1431"/>
</glyph>
<glyph name="ringcomb" format="2">
	<unicode hex="030A"/>
	<outline>
		<contour>
			<point x="-199" y="1437" type="qcurve" smooth="yes"/>
			<point x="-199" y="1522"/>
			<point x="-86" y="1634"/>
			<point x="0" y="1634" type="qcurve" smooth="yes"/>
			<point x="85" y="1634"/>
			<point x="198" y="1522"/>
			<point x="198" y="1437" type="qcurve" smooth="yes"/>
			<point x="198" y="1352"/>
			<point x="85" y="1240"/>
			<point x="0" y="1240" type="qcurve"/>
			<point x="-86" y="1240"/>
			<point x="-199" y="1352"/>
		</contour>
		<contour>
			<point x="-117" y="1437" type="qcurve" smooth="yes"/>
			<point x="-117" y="1384"/>
			<point x="-53" y="1317"/>
			<point x="0" y="1317" type="qcurve" smooth="yes"/>
			<point x="54" y="1317"/>
			<point x="117" y="1381"/>
			<point x="117" y="1437" type="qcurve" smooth="yes"/>
			<point x="117" y="1489"/>
			<point x="52" y="1556"/>
			<point x="0" y="1556" type="qcurve" smooth="yes"/>
			<point x="-55" y="1556"/>
			<point x="-117" y="1492"/>
		</contour>
	</outline>
	<anchor name="_top" x="0" y="1052"/>
	<anchor name="top" x="0" y="1647"/>
</glyph>
<glyph name="hungarumlautcomb" format="2">
	<unicode hex="030B"/>
	<outline>
		<contour>
			<point x="-228" y="1278" type="line"/>
			<point x="27" y="1547" type="line"/>
			<point x="121" y="1473" type="line"/>
			<point x="-158" y="1215" type="line"/>
		</contour>
		<contour>
			<point x="82" y="1278" type="line"/>
			<point x="337" y="1547" type="line"/>
			<point x="431" y="1473" type="line"/>
			<point x="152" y="1215" type="line"/>
		</contour>
	</outline>
	<anchor name="_top" x="0" y="1052"/>
	<anchor name="top" x="0" y="1581"/>
</glyph>
<glyph name="dieresisbelowcomb" format="2">
	<unicode hex="0324"/>
	<outline>
		<contour>
			<point x="-315" y="-277" type="qcurve" smooth="yes"/>
			<point x="-315" y="-237"/>
			<point x="-271" y="-194"/>
			<point x="-230" y="-194" type="qcurve" smooth="yes"/>
			<point x="-190" y="-194"/>
			<point x="-144" y="-240"/>
			<point x="-144" y="-277" type="qcurve" smooth="yes"/>
			<point x="-144" y="-317"/>
			<point x="-188" y="-360"/>
			<point x="-230" y="-360" type="qcurve" smooth="yes"/>
			<point x="-269" y="-360"/>
			<point x="-315" y="-315"/>
		</contour>
		<contour>
			<point x="144" y="-277" type="qcurve" smooth="yes"/>
			<point x="144" y="-237"/>
			<point x="188" y="-194"/>
			<point x="230" y="-194" type="qcurve" smooth="yes"/>
			<point x="269" y="-194"/>
			<point x="315" y="-240"/>
			<point x="315" y="-277" type="qcurve" smooth="yes"/>
			<point x="315" y="-317"/>
			<point x="271" y="-360"/>
			<point x="230" y="-360" type="qcurve" smooth="yes"/>
			<point x="190" y="-360"/>
			<point x="144" y="-315"/>
		</contour>
	</outline>
	<anchor name="_bottom" x="0" y="0"/>
	<anchor name="bottom" x="0" y="-421"/>
</glyph>
<glyph name="cedillacomb" format="2">
	<unicode hex="0327"/>
	<outline>
		<contour>
			<point x="-47" y="20" type="line"/>
			<point x="41" y="20" type="line"/>
			<point x="13" y="-82" type="line"/>
			<point x="75" y="-94"/>
			<point x="188" y="-171"/>
			<point x="188" y="-248" type="qcurve" smooth="yes"/>
			<point x="188" y="-341"/>
			<point x="27" y="-457"/>
			<point x="-165" y="-457" type="qcurve"/>
			<point x="-170" y="-374" type="line"/>
			<point x="-36" y="-374"/>
			<point x="64" y="-311"/>
			<point x="64" y="-250" type="qcurve" smooth="yes"/>
			<point x="64" y="-201"/>
			<point x="-4" y="-154"/>
			<point x="-86" y="-145" type="qcurve"/>
		</contour>
	</outline>
	<anchor name="_bottom" x="0" y="0"/>
	<anchor name="bottom" x="0" y="-457"/>
</glyph>
<glyph name="Theta" format="2">
	<unicode hex="0398"/>
	<advance width="1460"/>
	<outline>
		<contour>
			<point x="730" y="-30" type="qcurve" smooth="yes"/>
			<point x="465" y="-30"/>
			<point x="133" y="347"/>
			<point x="133" y="682" type="qcurve" smooth="yes"/>
			<point x="133" y="774" type="line" smooth="yes"/>
			<point x="133" y="1108"/>
			<point x="465" y="1486"/>
			<point x="730" y="1486" type="qcurve" smooth="yes"/>
			<point x="996" y="1486"/>
			<point x="1328" y="1110"/>
			<point x="1328" y="774" type="qcurve" smooth="yes"/>
			<point x="1328" y="682" type="line" smooth="yes"/>
			<point x="1328" y="346"/>
			<point x="996" y="-30"/>
		</contour>
		<contour>
			<point x="730" y="95" type="qcurve" smooth="yes"/>
			<point x="942" y="95"/>
			<point x="1195" y="408"/>
			<point x="1195" y="682" type="qcurve" smooth="yes"/>
			<point x="1195" y="774" type="line" smooth="yes"/>
			<point x="1195" y="1047"/>
			<point x="942" y="1360"/>
			<point x="730" y="1360" type="qcurve" smooth="yes"/>
			<point x="518" y="1360"/>
			<point x="265" y="1045"/>
			<point x="265" y="774" type="qcurve" smooth="yes"/>
			<point x="265" y="681" type="line" smooth="yes"/>
			<point x="265" y="410"/>
			<point x="518" y="95"/>
		</contour>
		<contour>
			<point x="488" y="679" type="line"/>
			<point x="488" y="807" type="line"/>
			<point x="972" y="807" type="line"/>
			<point x="972" y="679" type="line"/>
		</contour>
	</outline>
</glyph>
<glyph name="Lambda" format="2">
	<unicode hex="039B"/>
	<advance width="1240"/>
	<outline>
		<contour>
			<point x="26" y="0" type="line"/>
			<point x="560" y="1466" type="line"/>
			<point x="680" y="1466" type="line"/>
			<point x="1214" y="0" type="line"/>
			<point x="1077" y="0" type="line"/>
			<point x="663" y="1178" type="line" smooth="yes"/>
			<point x="651" y="1211"/>
			<point x="631" y="1273"/>
			<point x="623" y="1305" type="qcurve"/>
			<point x="614" y="1305" type="line"/>
			<point x="606" y="1272"/>
			<point x="586" y="1210"/>
			<point x="574" y="1178" type="qcurve" smooth="yes"/>
			<point x="157" y="0" type="line"/>
		</contour>
	</outline>
</glyph>
<glyph name="Psi" format="2">
	<unicode hex="03A8"/>
	<advance width="1665"/>
	<outline>
		<contour>
			<point x="770" y="0" type="line"/>
			<point x="770" y="1456" type="line"/>
			<point x="896" y="1456" type="line"/>
			<point x="896" y="0" type="line"/>
		</contour>
		<contour>
			<point x="783" y="361" type="line" smooth="yes"/>
			<point x="492" y="361"/>
			<point x="201" y="635"/>
			<point x="202" y="928" type="qcurve" smooth="yes"/>
			<point x="202" y="1456" type="line"/>
			<point x="332" y="1456" type="line"/>
			<point x="332" y="926" type="line" smooth="yes"/>
			<point x="332" y="691"/>
			<point x="538" y="481"/>
			<point x="783" y="481" type="qcurve" smooth="yes"/>
			<point x="884" y="481" type="line" smooth="yes"/>
			<point x="1129" y="481"/>
			<point x="1332" y="691"/>
			<point x="1332" y="926" type="qcurve" smooth="yes"/>
			<point x="1332" y="1456" type="line"/>
			<point x="1463" y="1456" type="line"/>
			<point x="1463" y="928" type="line" smooth="yes"/>
			<point x="1463" y="635"/>
			<point x="1173" y="361"/>
			<point x="883" y="361" type="qcurve" smooth="yes"/>
		</contour>
	</outline>
</glyph>
<glyph name="zeta" format="2">
	<unicode hex="03B6"/>
	<advance width="816"/>
	<outline>
		<contour>
			<point x="638" y="-348" type="line"/>
			<point x="661" y="-295"/>
			<point x="692" y="-195"/>
			<point x="692" y="-144" type="qcurve" smooth="yes"/>
			<point x="692" y="-77"/>
			<point x="627" y="-11"/>
			<point x="533" y="10" type="qcurve" smooth="yes"/>
			<point x="401" y="40" type="line" smooth="yes"/>
			<point x="244" y="76"/>
			<point x="85" y="237"/>
			<point x="85" y="365" type="qcurve"/>
			<point x="85" y="463"/>
			<point x="155" y="655"/>
			<point x="409" y="968" type="qcurve" smooth="yes"/>
			<point x="725" y="1357" type="line"/>
			<point x="729" y="1339" type="line"/>
			<point x="128" y="1339" type="line"/>
			<point x="128" y="1456" type="line"/>
			<point x="856" y="1456" type="line"/>
			<point x="856" y="1336" type="line"/>
			<point x="512" y="905" type="line" smooth="yes"/>
			<point x="296" y="635"/>
			<point x="229" y="476"/>
			<point x="229" y="387" type="qcurve"/>
			<point x="229" y="306"/>
			<point x="328" y="189"/>
			<point x="458" y="159" type="qcurve" smooth="yes"/>
			<point x="581" y="131" type="line" smooth="yes"/>
			<point x="721" y="99"/>
			<point x="814" y="-10"/>
			<point x="814" y="-99" type="qcurve" smooth="yes"/>
			<point x="814" y="-156"/>
			<point x="786" y="-279"/>
			<point x="755" y="-348" type="qcurve"/>
		</contour>
	</outline>
	<guideline x="809" y="291" angle="90" identifier="Hhem4nGbLg"/>
	<guideline x="856" y="823" angle="90" identifier="UwRnHAo0ZQ"/>
</glyph>
<glyph name="eta" format="2">
	<unicode hex="03B7"/>
	<advance width="1138"/>
	<outline>
		<contour>
			<point x="181" y="0" type="line"/>
			<point x="181" y="1052" type="line"/>
			<point x="295" y="1052" type="line"/>
			<point x="307" y="843" type="line"/>
			<point x="307" y="0" type="line"/>
		</contour>
		<contour>
			<point x="244" y="643" type="qcurve"/>
			<point x="244" y="780" type="line"/>
			<point x="313" y="942"/>
			<point x="522" y="1072"/>
			<point x="639" y="1072" type="qcurve" smooth="yes"/>
			<point x="795" y="1072"/>
			<point x="967" y="891"/>
			<point x="967" y="679" type="qcurve" smooth="yes"/>
			<point x="967" y="-416" type="line"/>
			<point x="840" y="-416" type="line"/>
			<point x="840" y="681" type="line" smooth="yes"/>
			<point x="840" y="827"/>
			<point x="715" y="952"/>
			<point x="602" y="952" type="qcurve" smooth="yes"/>
			<point x="501" y="952"/>
			<point x="338" y="840"/>
		</contour>
	</outline>
	<anchor name="bottom" x="583" y="0"/>
	<anchor name="top" x="599" y="1052"/>
</glyph>
<glyph name="theta" format="2">
	<unicode hex="03B8"/>
	<advance width="1143"/>
	<outline>
		<contour>
			<point x="573" y="-30" type="qcurve" smooth="yes"/>
			<point x="366" y="-30"/>
			<point x="124" y="284"/>
			<point x="124" y="654" type="qcurve"/>
			<point x="124" y="802" type="line"/>
			<point x="124" y="1162"/>
			<point x="365" y="1476"/>
			<point x="571" y="1476" type="qcurve" smooth="yes"/>
			<point x="779" y="1476"/>
			<point x="1019" y="1162"/>
			<point x="1019" y="802" type="qcurve"/>
			<point x="1019" y="654" type="line"/>
			<point x="1019" y="284"/>
			<point x="780" y="-30"/>
		</contour>
		<contour>
			<point x="574" y="86" type="qcurve" smooth="yes"/>
			<point x="723" y="86"/>
			<point x="889" y="337"/>
			<point x="889" y="623" type="qcurve"/>
			<point x="889" y="827" type="line" smooth="yes"/>
			<point x="889" y="1112"/>
			<point x="721" y="1359"/>
			<point x="572" y="1359" type="qcurve" smooth="yes"/>
			<point x="424" y="1359"/>
			<point x="254" y="1112"/>
			<point x="254" y="827" type="qcurve" smooth="yes"/>
			<point x="254" y="623" type="line" smooth="yes"/>
			<point x="254" y="337"/>
			<point x="426" y="86"/>
		</contour>
		<contour>
			<point x="189" y="692" type="line"/>
			<point x="189" y="800" type="line"/>
			<point x="954" y="800" type="line"/>
			<point x="954" y="692" type="line"/>
		</contour>
	</outline>
</glyph>
<glyph name="kappa" format="2">
	<unicode hex="03BA"/>
	<advance width="1043"/>
	<outline>
		<contour>
			<point x="860" y="0" type="line"/>
			<point x="423" y="498" type="line"/>
			<point x="502" y="584" type="line"/>
			<point x="1011" y="0" type="line"/>
		</contour>
		<contour>
			<point x="244" y="594" type="line"/>
			<point x="443" y="594" type="line"/>
			<point x="842" y="1052" type="line"/>
			<point x="990" y="1052" type="line"/>
			<point x="492" y="483" type="line"/>
			<point x="244" y="483" type="line"/>
		</contour>
		<contour>
			<point x="307" y="1052" type="line"/>
			<point x="307" y="0" type="line"/>
			<point x="181" y="0" type="line"/>
			<point x="181" y="1052" type="line"/>
		</contour>
	</outline>
</glyph>
<glyph name="lambda" format="2">
	<unicode hex="03BB"/>
	<advance width="961"/>
	<outline>
		<contour>
			<point x="24" y="0" type="line"/>
			<point x="428" y="1048" type="line"/>
			<point x="394" y="1156" type="line" smooth="yes"/>
			<point x="354" y="1284"/>
			<point x="286" y="1366"/>
			<point x="223" y="1366" type="qcurve" smooth="yes"/>
			<point x="202" y="1366"/>
			<point x="142" y="1358"/>
			<point x="120" y="1349" type="qcurve"/>
			<point x="120" y="1455" type="line"/>
			<point x="142" y="1465"/>
			<point x="205" y="1476"/>
			<point x="232" y="1476" type="qcurve" smooth="yes"/>
			<point x="326" y="1476"/>
			<point x="435" y="1377"/>
			<point x="478" y="1252" type="qcurve" smooth="yes"/>
			<point x="937" y="0" type="line"/>
			<point x="801" y="0" type="line"/>
			<point x="542" y="707" type="line" smooth="yes"/>
			<point x="522" y="763"/>
			<point x="503" y="829"/>
			<point x="490" y="880" type="qcurve"/>
			<point x="484" y="880" type="line"/>
			<point x="472" y="831"/>
			<point x="449" y="749"/>
			<point x="434" y="707" type="qcurve" smooth="yes"/>
			<point x="160" y="0" type="line"/>
		</contour>
	</outline>
</glyph>
<glyph name="mu" format="2">
	<unicode hex="03BC"/>
	<advance width="1206"/>
	<outline>
		<contour>
			<point x="176" y="-416" type="line"/>
			<point x="176" y="1052" type="line"/>
			<point x="302" y="1052" type="line"/>
			<point x="302" y="-416" type="line"/>
		</contour>
		<contour>
			<point x="250" y="308" type="line"/>
			<point x="314" y="186"/>
			<point x="459" y="96"/>
			<point x="569" y="96" type="qcurve" smooth="yes"/>
			<point x="676" y="96"/>
			<point x="835" y="229"/>
			<point x="835" y="316" type="qcurve" smooth="yes"/>
			<point x="835" y="1052" type="line"/>
			<point x="962" y="1052" type="line"/>
			<point x="962" y="255" type="line" smooth="yes"/>
			<point x="962" y="167"/>
			<point x="1008" y="105"/>
			<point x="1053" y="105" type="qcurve" smooth="yes"/>
			<point x="1073" y="105"/>
			<point x="1109" y="113"/>
			<point x="1126" y="121" type="qcurve"/>
			<point x="1126" y="5" type="line"/>
			<point x="1107" y="-4"/>
			<point x="1057" y="-17"/>
			<point x="1028" y="-17" type="qcurve" smooth="yes"/>
			<point x="946" y="-17"/>
			<point x="858" y="59"/>
			<point x="846" y="130" type="qcurve"/>
			<point x="840" y="130" type="line"/>
			<point x="807" y="68"/>
			<point x="659" y="-20"/>
			<point x="559" y="-20" type="qcurve" smooth="yes"/>
			<point x="443" y="-20"/>
			<point x="297" y="77"/>
			<point x="250" y="158" type="qcurve"/>
		</contour>
	</outline>
</glyph>
<glyph name="pi" format="2">
	<unicode hex="03C0"/>
	<advance width="1184"/>
	<outline>
		<contour>
			<point x="30" y="935" type="line"/>
			<point x="30" y="1052" type="line"/>
			<point x="1101" y="1052" type="line"/>
			<point x="1101" y="935" type="line"/>
		</contour>
		<contour>
			<point x="195" y="0" type="line"/>
			<point x="195" y="990" type="line"/>
			<point x="321" y="990" type="line"/>
			<point x="321" y="0" type="line"/>
		</contour>
		<contour>
			<point x="995" y="-30" type="qcurve" smooth="yes"/>
			<point x="902" y="-30"/>
			<point x="808" y="89"/>
			<point x="808" y="240" type="qcurve"/>
			<point x="808" y="990" type="line"/>
			<point x="935" y="990" type="line"/>
			<point x="935" y="266" type="line"/>
			<point x="935" y="169"/>
			<point x="975" y="92"/>
			<point x="1031" y="92" type="qcurve"/>
			<point x="1045" y="92"/>
			<point x="1088" y="102"/>
			<point x="1099" y="108" type="qcurve"/>
			<point x="1099" y="-8" type="line"/>
			<point x="1081" y="-18"/>
			<point x="1028" y="-30"/>
		</contour>
	</outline>
</glyph>
<glyph name="finalsigma" format="2">
	<unicode hex="03C2"/>
	<advance width="1048"/>
	<outline>
		<contour>
			<point x="681" y="-348" type="line"/>
			<point x="705" y="-295"/>
			<point x="735" y="-196"/>
			<point x="735" y="-143" type="qcurve"/>
			<point x="735" y="-74"/>
			<point x="659" y="-7"/>
			<point x="557" y="16" type="qcurve" smooth="yes"/>
			<point x="504" y="28" type="line" smooth="yes"/>
			<point x="316" y="70"/>
			<point x="113" y="287"/>
			<point x="113" y="505" type="qcurve" smooth="yes"/>
			<point x="113" y="542" type="line" smooth="yes"/>
			<point x="113" y="772"/>
			<point x="356" y="1082"/>
			<point x="579" y="1082" type="qcurve" smooth="yes"/>
			<point x="782" y="1082"/>
			<point x="970" y="851"/>
			<point x="970" y="715" type="qcurve" smooth="yes"/>
			<point x="970" y="710" type="line"/>
			<point x="847" y="710" type="line"/>
			<point x="847" y="715" type="line" smooth="yes"/>
			<point x="847" y="812"/>
			<point x="713" y="965"/>
			<point x="579" y="965" type="qcurve"/>
			<point x="419" y="965"/>
			<point x="242" y="746"/>
			<point x="242" y="548" type="qcurve" smooth="yes"/>
			<point x="242" y="510" type="line" smooth="yes"/>
			<point x="242" y="339"/>
			<point x="377" y="175"/>
			<point x="544" y="137" type="qcurve" smooth="yes"/>
			<point x="600" y="124" type="line" smooth="yes"/>
			<point x="751" y="91"/>
			<point x="857" y="-13"/>
			<point x="857" y="-104" type="qcurve"/>
			<point x="857" y="-160"/>
			<point x="828" y="-278"/>
			<point x="797" y="-348" type="qcurve"/>
		</contour>
	</outline>
</glyph>
<glyph name="omega" format="2">
	<unicode hex="03C9"/>
	<advance width="1570"/>
	<outline>
		<contour>
			<point x="497" y="-30" type="qcurve" smooth="yes"/>
			<point x="329" y="-30"/>
			<point x="153" y="219"/>
			<point x="153" y="472" type="qcurve"/>
			<point x="153" y="653"/>
			<point x="257" y="942"/>
			<point x="350" y="1052" type="qcurve"/>
			<point x="479" y="1052" type="line"/>
			<point x="375" y="924"/>
			<point x="282" y="630"/>
			<point x="282" y="471" type="qcurve"/>
			<point x="282" y="271"/>
			<point x="385" y="89"/>
			<point x="497" y="89" type="qcurve" smooth="yes"/>
			<point x="611" y="89"/>
			<point x="721" y="277"/>
			<point x="721" y="408" type="qcurve" smooth="yes"/>
			<point x="721" y="722" type="line"/>
			<point x="848" y="722" type="line"/>
			<point x="848" y="408" type="line" smooth="yes"/>
			<point x="848" y="277"/>
			<point x="957" y="89"/>
			<point x="1072" y="89" type="qcurve" smooth="yes"/>
			<point x="1184" y="89"/>
			<point x="1287" y="271"/>
			<point x="1287" y="471" type="qcurve"/>
			<point x="1287" y="630"/>
			<point x="1194" y="924"/>
			<point x="1090" y="1052" type="qcurve"/>
			<point x="1219" y="1052" type="line"/>
			<point x="1312" y="942"/>
			<point x="1417" y="653"/>
			<point x="1417" y="472" type="qcurve"/>
			<point x="1417" y="219"/>
			<point x="1241" y="-30"/>
			<point x="1072" y="-30" type="qcurve" smooth="yes"/>
			<point x="959" y="-30"/>
			<point x="809" y="109"/>
			<point x="778" y="235" type="qcurve"/>
			<point x="791" y="235" type="line"/>
			<point x="760" y="109"/>
			<point x="610" y="-30"/>
		</contour>
	</outline>
	<anchor name="top" x="786" y="1052"/>
</glyph>
<glyph name="Dje" format="2">
	<unicode hex="0402"/>
	<advance width="1616"/>
	<outline>
		<contour>
			<point x="507" y="0" type="line"/>
			<point x="507" y="1397" type="line"/>
			<point x="638" y="1397" type="line"/>
			<point x="638" y="0" type="line"/>
		</contour>
		<contour>
			<point x="1107" y="0" type="line"/>
			<point x="1107" y="139" type="line"/>
			<point x="1115" y="139" type="line" smooth="yes"/>
			<point x="1232" y="139"/>
			<point x="1350" y="290"/>
			<point x="1350" y="407" type="qcurve" smooth="yes"/>
			<point x="1350" y="423" type="line" smooth="yes"/>
			<point x="1350" y="572"/>
			<point x="1176" y="730"/>
			<point x="945" y="730" type="qcurve" smooth="yes"/>
			<point x="834" y="730"/>
			<point x="661" y="709"/>
			<point x="573" y="687" type="qcurve"/>
			<point x="573" y="807" type="line"/>
			<point x="660" y="829"/>
			<point x="838" y="850"/>
			<point x="955" y="850" type="qcurve" smooth="yes"/>
			<point x="1239" y="850"/>
			<point x="1481" y="624"/>
			<point x="1481" y="432" type="qcurve" smooth="yes"/>
			<point x="1481" y="409" type="line" smooth="yes"/>
			<point x="1481" y="235"/>
			<point x="1295" y="0"/>
			<point x="1115" y="0" type="qcurve" smooth="yes"/>
		</contour>
		<contour>
			<point x="24" y="1336" type="line"/>
			<point x="24" y="1456" type="line"/>
			<point x="1152" y="1456" type="line"/>
			<point x="1152" y="1336" type="line"/>
		</contour>
	</outline>
	<guideline x="568" y="625" angle="90" identifier="YDADns81zF"/>
</glyph>
<glyph name="Nje" format="2">
	<unicode hex="040A"/>
	<advance width="2026"/>
	<outline>
		<contour>
			<point x="195" y="0" type="line"/>
			<point x="325" y="0" type="line"/>
			<point x="325" y="1456" type="line"/>
			<point x="195" y="1456" type="line"/>
		</contour>
		<contour>
			<point x="1032" y="0" type="line"/>
			<point x="1478" y="0" type="line" smooth="yes"/>
			<point x="1705" y="0"/>
			<point x="1946" y="239"/>
			<point x="1946" y="436" type="qcurve" smooth="yes"/>
			<point x="1946" y="632"/>
			<point x="1705" y="843"/>
			<point x="1478" y="843" type="qcurve" smooth="yes"/>
			<point x="1115" y="843" type="line"/>
			<point x="1115" y="722" type="line"/>
			<point x="1478" y="722" type="line" smooth="yes"/>
			<point x="1657" y="722"/>
			<point x="1815" y="569"/>
			<point x="1815" y="436" type="qcurve" smooth="yes"/>
			<point x="1815" y="302"/>
			<point x="1657" y="120"/>
			<point x="1478" y="120" type="qcurve" smooth="yes"/>
			<point x="1163" y="120" type="line"/>
			<point x="1163" y="1456" type="line"/>
			<point x="1032" y="1456" type="line"/>
		</contour>
		<contour>
			<point x="265" y="722" type="line"/>
			<point x="1093" y="722" type="line"/>
			<point x="1093" y="843" type="line"/>
			<point x="265" y="843" type="line"/>
		</contour>
	</outline>
</glyph>
<glyph name="El" format="2">
	<unicode hex="041B"/>
	<advance width="1448"/>
	<outline>
		<contour>
			<point x="368" y="1456" type="line"/>
			<point x="1253" y="1456" type="line"/>
			<point x="1253" y="0" type="line"/>
			<point x="1122" y="0" type="line"/>
			<point x="1122" y="1335" type="line"/>
			<point x="482" y="1335" type="line"/>
			<point x="441" y="545" type="line" smooth="yes"/>
			<point x="425" y="258"/>
			<point x="308" y="-30"/>
			<point x="147" y="-30" type="qcurve" smooth="yes"/>
			<point x="123" y="-30"/>
			<point x="69" y="-23"/>
			<point x="40" y="-13" type="qcurve"/>
			<point x="40" y="112" type="line"/>
			<point x="64" y="104"/>
			<point x="106" y="98"/>
			<point x="128" y="98" type="qcurve" smooth="yes"/>
			<point x="226" y="98"/>
			<point x="305" y="314"/>
			<point x="319" y="568" type="qcurve" smooth="yes"/>
		</contour>
	</outline>
</glyph>
<glyph name="Che" format="2">
	<unicode hex="0427"/>
	<advance width="1388"/>
	<outline>
		<contour>
			<point x="296" y="1032" type="line" smooth="yes"/>
			<point x="296" y="842"/>
			<point x="476" y="696"/>
			<point x="690" y="696" type="qcurve" smooth="yes"/>
			<point x="805" y="696"/>
			<point x="1032" y="716"/>
			<point x="1128" y="737" type="qcurve"/>
			<point x="1128" y="617" type="line"/>
			<point x="1001" y="595"/>
			<point x="798" y="576"/>
			<point x="678" y="576" type="qcurve" smooth="yes"/>
			<point x="391" y="576"/>
			<point x="166" y="807"/>
			<point x="166" y="1035" type="qcurve" smooth="yes"/>
			<point x="166" y="1456" type="line"/>
			<point x="296" y="1456" type="line"/>
		</contour>
		<contour>
			<point x="1193" y="1456" type="line"/>
			<point x="1193" y="0" type="line"/>
			<point x="1062" y="0" type="line"/>
			<point x="1062" y="1456" type="line"/>
		</contour>
	</outline>
	<anchor name="cy_descender" x="1103.1896525333" y="0"/>
	<guideline x="1123" y="741" angle="90" identifier="nfCxFSb4p1"/>
</glyph>
<glyph name="Sha" format="2">
	<unicode hex="0428"/>
	<advance width="1944"/>
	<outline>
		<contour>
			<point x="195" y="1456" type="line"/>
			<point x="325" y="1456" type="line"/>
			<point x="325" y="120" type="line"/>
			<point x="906" y="120" type="line"/>
			<point x="906" y="1456" type="line"/>
			<point x="1037" y="1456" type="line"/>
			<point x="1037" y="120" type="line"/>
			<point x="1618" y="120" type="line"/>
			<point x="1618" y="1456" type="line"/>
			<point x="1749" y="1456" type="line"/>
			<point x="1749" y="0" type="line"/>
			<point x="195" y="0" type="line"/>
		</contour>
	</outline>
	<anchor name="cy_descender" x="1686" y="0"/>
</glyph>
<glyph name="Ecyr" format="2">
	<unicode hex="042D"/>
	<advance width="1359"/>
	<outline>
		<contour>
			<point x="1160" y="811" type="line"/>
			<point x="1160" y="691" type="line"/>
			<point x="429" y="691" type="line"/>
			<point x="429" y="811" type="line"/>
		</contour>
		<contour>
			<point x="1094" y="676" type="qcurve" smooth="yes"/>
			<point x="1094" y="789" type="line" smooth="yes"/>
			<point x="1094" y="1075"/>
			<point x="852" y="1360"/>
			<point x="652" y="1360" type="qcurve" smooth="yes"/>
			<point x="462" y="1360"/>
			<point x="247" y="1159"/>
			<point x="247" y="1002" type="qcurve" smooth="yes"/>
			<point x="247" y="990" type="line"/>
			<point x="117" y="990" type="line"/>
			<point x="117" y="1002" type="line" smooth="yes"/>
			<point x="117" y="1215"/>
			<point x="403" y="1486"/>
			<point x="652" y="1486" type="qcurve" smooth="yes"/>
			<point x="910" y="1486"/>
			<point x="1226" y="1117"/>
			<point x="1226" y="788" type="qcurve" smooth="yes"/>
			<point x="1226" y="698" type="line" smooth="yes"/>
			<point x="1226" y="331"/>
			<point x="909" y="-30"/>
			<point x="649" y="-30" type="qcurve" smooth="yes"/>
			<point x="398" y="-30"/>
			<point x="116" y="258"/>
			<point x="116" y="459" type="qcurve" smooth="yes"/>
			<point x="116" y="466" type="line"/>
			<point x="247" y="466" type="line"/>
			<point x="247" y="459" type="line" smooth="yes"/>
			<point x="247" y="309"/>
			<point x="450" y="95"/>
			<point x="649" y="95" type="qcurve" smooth="yes"/>
			<point x="871" y="95"/>
			<point x="1094" y="406"/>
		</contour>
	</outline>
	<anchor name="top" x="657" y="1456"/>
	<guideline x="1147" y="753" angle="90" identifier="Ovo68woMtl"/>
</glyph>
<glyph name="ghe" format="2">
	<unicode hex="0433"/>
	<advance width="864"/>
	<outline>
		<contour>
			<point x="181" y="1052" type="line"/>
			<point x="809" y="1052" type="line"/>
			<point x="809" y="941" type="line"/>
			<point x="307" y="941" type="line"/>
			<point x="307" y="0" type="line"/>
			<point x="181" y="0" type="line"/>
		</contour>
	</outline>
	<anchor name="top" x="491.2099341803" y="1052"/>
</glyph>
<glyph name="zhe" format="2">
	<unicode hex="0436"/>
	<advance width="1400"/>
	<outline>
		<contour>
			<point x="762" y="0" type="line"/>
			<point x="638" y="0" type="line"/>
			<point x="638" y="1052" type="line"/>
			<point x="762" y="1052" type="line"/>
		</contour>
		<contour>
			<point x="1231" y="0" type="line"/>
			<point x="870" y="518" type="line"/>
			<point x="952" y="592" type="line"/>
			<point x="1371" y="0" type="line"/>
		</contour>
		<contour>
			<point x="700" y="588" type="line"/>
			<point x="882" y="588" type="line"/>
			<point x="1202" y="1052" type="line"/>
			<point x="1342" y="1052" type="line"/>
			<point x="950" y="489" type="line"/>
			<point x="700" y="489" type="line"/>
		</contour>
		<contour>
			<point x="169" y="0" type="line"/>
			<point x="29" y="0" type="line"/>
			<point x="448" y="592" type="line"/>
			<point x="530" y="518" type="line"/>
		</contour>
		<contour>
			<point x="700" y="588" type="line"/>
			<point x="700" y="489" type="line"/>
			<point x="450" y="489" type="line"/>
			<point x="58" y="1052" type="line"/>
			<point x="198" y="1052" type="line"/>
			<point x="518" y="588" type="line"/>
		</contour>
	</outline>
	<anchor name="top" x="699" y="1052"/>
	<anchor name="cy_descender" x="1236" y="0"/>
</glyph>
<glyph name="el" format="2">
	<unicode hex="043B"/>
	<advance width="1125"/>
	<outline>
		<contour>
			<point x="390" y="941" type="line"/>
			<point x="370" y="490" type="line" smooth="yes"/>
			<point x="358" y="217"/>
			<point x="266" y="-22"/>
			<point x="140" y="-22" type="qcurve" smooth="yes"/>
			<point x="110" y="-22"/>
			<point x="55" y="-13"/>
			<point x="39" y="-4" type="qcurve"/>
			<point x="39" y="115" type="line"/>
			<point x="56" y="108"/>
			<point x="93" y="101"/>
			<point x="115" y="101" type="qcurve" smooth="yes"/>
			<point x="194" y="101"/>
			<point x="245" y="280"/>
			<point x="254" y="507" type="qcurve" smooth="yes"/>
			<point x="278" y="1052" type="line"/>
			<point x="944" y="1052" type="line"/>
			<point x="944" y="0" type="line"/>
			<point x="817" y="0" type="line"/>
			<point x="817" y="941" type="line"/>
		</contour>
	</outline>
</glyph>
<glyph name="em" format="2">
	<unicode hex="043C"/>
	<advance width="1506"/>
	<outline>
		<contour>
			<point x="206" y="0" type="line"/>
			<point x="206" y="1052" type="line"/>
			<point x="382" y="1052" type="line"/>
			<point x="701" y="292" type="line" smooth="yes"/>
			<point x="725" y="235"/>
			<point x="742" y="190"/>
			<point x="748" y="166" type="qcurve"/>
			<point x="759" y="166" type="line"/>
			<point x="765" y="190"/>
			<point x="781" y="235"/>
			<point x="806" y="291" type="qcurve" smooth="yes"/>
			<point x="1127" y="1052" type="line"/>
			<point x="1300" y="1052" type="line"/>
			<point x="1300" y="0" type="line"/>
			<point x="1179" y="0" type="line"/>
			<point x="1179" y="779" type="line" smooth="yes"/>
			<point x="1179" y="838"/>
			<point x="1181" y="891"/>
			<point x="1183" y="911" type="qcurve"/>
			<point x="1174" y="911" type="line"/>
			<point x="1168" y="891"/>
			<point x="1150" y="839"/>
			<point x="1126" y="782" type="qcurve" smooth="yes"/>
			<point x="807" y="29" type="line"/>
			<point x="694" y="29" type="line"/>
			<point x="374" y="789" type="line" smooth="yes"/>
			<point x="354" y="837"/>
			<point x="335" y="891"/>
			<point x="329" y="911" type="qcurve"/>
			<point x="319" y="911" type="line"/>
			<point x="320" y="891"/>
			<point x="322" y="841"/>
			<point x="322" y="788" type="qcurve" smooth="yes"/>
			<point x="322" y="0" type="line"/>
		</contour>
	</outline>
</glyph>
<glyph name="sha" format="2">
	<unicode hex="0448"/>
	<advance width="1674"/>
	<outline>
		<contour>
			<point x="181" y="0" type="line"/>
			<point x="181" y="1052" type="line"/>
			<point x="307" y="1052" type="line"/>
			<point x="307" y="110" type="line"/>
			<point x="773" y="110" type="line"/>
			<point x="773" y="1052" type="line"/>
			<point x="900" y="1052" type="line"/>
			<point x="900" y="110" type="line"/>
			<point x="1366" y="110" type="line"/>
			<point x="1366" y="1052" type="line"/>
			<point x="1493" y="1052" type="line"/>
			<point x="1493" y="0" type="line"/>
		</contour>
	</outline>
	<anchor name="cy_descender" x="1427" y="0"/>
</glyph>
<glyph name="hard" format="2">
	<unicode hex="044A"/>
	<advance width="1220"/>
	<outline>
		<contour>
			<point x="346" y="0" type="line"/>
			<point x="346" y="941" type="line"/>
			<point x="83" y="941" type="line"/>
			<point x="83" y="1052" type="line"/>
			<point x="473" y="1052" type="line"/>
			<point x="473" y="110" type="line"/>
			<point x="748" y="110" type="line" smooth="yes"/>
			<point x="873" y="110"/>
			<point x="1006" y="242"/>
			<point x="1006" y="348" type="qcurve" smooth="yes"/>
			<point x="1006" y="452"/>
			<point x="874" y="581"/>
			<point x="748" y="581" type="qcurve" smooth="yes"/>
			<point x="412" y="581" type="line"/>
			<point x="412" y="692" type="line"/>
			<point x="748" y="692" type="line" smooth="yes"/>
			<point x="922" y="692"/>
			<point x="1133" y="506"/>
			<point x="1133" y="348" type="qcurve" smooth="yes"/>
			<point x="1133" y="190"/>
			<point x="922" y="0"/>
			<point x="748" y="0" type="qcurve" smooth="yes"/>
		</contour>
	</outline>
</glyph>
<glyph name="soft" format="2">
	<unicode hex="044C"/>
	<advance width="1048"/>
	<outline>
		<contour>
			<point x="181" y="0" type="line"/>
			<point x="181" y="1052" type="line"/>
			<point x="307" y="1052" type="line"/>
			<point x="307" y="110" type="line"/>
			<point x="575" y="110" type="line" smooth="yes"/>
			<point x="700" y="110"/>
			<point x="836" y="242"/>
			<point x="836" y="348" type="qcurve" smooth="yes"/>
			<point x="836" y="452"/>
			<point x="700" y="581"/>
			<point x="575" y="581" type="qcurve" smooth="yes"/>
			<point x="246" y="581" type="line"/>
			<point x="246" y="692" type="line"/>
			<point x="575" y="692" type="line" smooth="yes"/>
			<point x="749" y="692"/>
			<point x="963" y="506"/>
			<point x="963" y="348" type="qcurve" smooth="yes"/>
			<point x="963" y="190"/>
			<point x="749" y="0"/>
			<point x="575" y="0" type="qcurve" smooth="yes"/>
		</contour>
	</outline>
</glyph>
<glyph name="lje" format="2">
	<unicode hex="0459"/>
	<advance width="1655"/>
	<outline>
		<contour>
			<point x="40" y="-4" type="qcurve"/>
			<point x="40" y="115" type="line"/>
			<point x="57" y="107"/>
			<point x="94" y="101"/>
			<point x="116" y="101" type="qcurve" smooth="yes"/>
			<point x="195" y="101"/>
			<point x="246" y="282"/>
			<point x="256" y="516" type="qcurve" smooth="yes"/>
			<point x="279" y="1052" type="line"/>
			<point x="911" y="1052" type="line"/>
			<point x="911" y="110" type="line"/>
			<point x="1183" y="110" type="line" smooth="yes"/>
			<point x="1309" y="110"/>
			<point x="1442" y="242"/>
			<point x="1442" y="348" type="qcurve" smooth="yes"/>
			<point x="1442" y="452"/>
			<point x="1309" y="581"/>
			<point x="1183" y="581" type="qcurve" smooth="yes"/>
			<point x="850" y="581" type="line"/>
			<point x="850" y="692" type="line"/>
			<point x="1183" y="692" type="line" smooth="yes"/>
			<point x="1357" y="692"/>
			<point x="1569" y="506"/>
			<point x="1569" y="348" type="qcurve" smooth="yes"/>
			<point x="1569" y="190"/>
			<point x="1357" y="0"/>
			<point x="1183" y="0" type="qcurve" smooth="yes"/>
			<point x="784" y="0" type="line"/>
			<point x="784" y="941" type="line"/>
			<point x="391" y="941" type="line"/>
			<point x="371" y="490" type="line" smooth="yes"/>
			<point x="359" y="217"/>
			<point x="268" y="-22"/>
			<point x="141" y="-22" type="qcurve" smooth="yes"/>
			<point x="111" y="-22"/>
			<point x="56" y="-13"/>
		</contour>
	</outline>
</glyph>
<glyph name="kaverticalstrokecyr" format="2">
	<unicode hex="049D"/>
	<advance width="1210"/>
	<outline>
		<contour>
			<point x="587" y="852" type="line"/>
			<point x="587" y="200" type="line"/>
			<point x="474" y="200" type="line"/>
			<point x="474" y="852" type="line"/>
		</contour>
		<contour>
			<point x="307" y="1052" type="line"/>
			<point x="307" y="0" type="line"/>
			<point x="181" y="0" type="line"/>
			<point x="181" y="1052" type="line"/>
		</contour>
		<contour>
			<point x="1036" y="0" type="line"/>
			<point x="626" y="501" type="line"/>
			<point x="705" y="586" type="line"/>
			<point x="1190" y="0" type="line"/>
		</contour>
		<contour>
			<point x="554" y="589" type="line"/>
			<point x="636" y="589" type="line"/>
			<point x="1007" y="1052" type="line"/>
			<point x="1153" y="1052" type="line"/>
			<point x="695" y="490" type="line"/>
			<point x="554" y="490" type="line"/>
		</contour>
	</outline>
	<guideline x="547" y="651" angle="90" identifier="ATaXbxe4rK"/>
</glyph>
<glyph name="Cheverticalstroke-cy" format="2">
	<unicode hex="04B8"/>
	<advance width="1388"/>
	<outline>
		<contour>
			<point x="740" y="1106" type="line"/>
			<point x="740" y="250" type="line"/>
			<point x="624" y="250" type="line"/>
			<point x="624" y="1106" type="line"/>
		</contour>
		<contour>
			<point x="296" y="1032" type="line" smooth="yes"/>
			<point x="296" y="842"/>
			<point x="476" y="696"/>
			<point x="690" y="696" type="qcurve" smooth="yes"/>
			<point x="805" y="696"/>
			<point x="1033" y="716"/>
			<point x="1128" y="737" type="qcurve"/>
			<point x="1128" y="617" type="line"/>
			<point x="1001" y="595"/>
			<point x="798" y="576"/>
			<point x="678" y="576" type="qcurve" smooth="yes"/>
			<point x="391" y="576"/>
			<point x="166" y="807"/>
			<point x="166" y="1035" type="qcurve" smooth="yes"/>
			<point x="166" y="1456" type="line"/>
			<point x="296" y="1456" type="line"/>
		</contour>
		<contour>
			<point x="1193" y="1456" type="line"/>
			<point x="1193" y="0" type="line"/>
			<point x="1062" y="0" type="line"/>
			<point x="1062" y="1456" type="line"/>
		</contour>
	</outline>
</glyph>
<glyph name="Germandbls" format="2">
	<unicode hex="1E9E"/>
	<advance width="1595"/>
	<outline>
		<contour>
			<point x="94" y="-16" type="qcurve" smooth="yes"/>
			<point x="81" y="-16"/>
			<point x="54" y="-14"/>
			<point x="41" y="-12" type="qcurve"/>
			<point x="39" y="128" type="line"/>
			<point x="50" y="125"/>
			<point x="67" y="123"/>
			<point x="94" y="123" type="qcurve" smooth="yes"/>
			<point x="145" y="123"/>
			<point x="208" y="244"/>
			<point x="208" y="355" type="qcurve" smooth="yes"/>
			<point x="208" y="1032" type="line" smooth="yes"/>
			<point x="208" y="1233"/>
			<point x="408" y="1476"/>
			<point x="612" y="1476" type="qcurve" smooth="yes"/>
			<point x="815" y="1476"/>
			<point x="986" y="1324"/>
			<point x="986" y="1203" type="qcurve" smooth="yes"/>
			<point x="986" y="1140"/>
			<point x="908" y="1037"/>
			<point x="820" y="977" type="qcurve" smooth="yes"/>
			<point x="771" y="944"/>
			<point x="725" y="897"/>
			<point x="725" y="869" type="qcurve" smooth="yes"/>
			<point x="725" y="833"/>
			<point x="784" y="790"/>
			<point x="949" y="745" type="qcurve" smooth="yes"/>
			<point x="1170" y="685"/>
			<point x="1485" y="507"/>
			<point x="1485" y="340" type="qcurve" smooth="yes"/>
			<point x="1485" y="160"/>
			<point x="1223" y="-30"/>
			<point x="996" y="-30" type="qcurve" smooth="yes"/>
			<point x="768" y="-30"/>
			<point x="493" y="198"/>
			<point x="493" y="398" type="qcurve" smooth="yes"/>
			<point x="493" y="410" type="line"/>
			<point x="623" y="410" type="line"/>
			<point x="623" y="398" type="line" smooth="yes"/>
			<point x="623" y="249"/>
			<point x="823" y="95"/>
			<point x="996" y="95" type="qcurve" smooth="yes"/>
			<point x="1169" y="95"/>
			<point x="1355" y="213"/>
			<point x="1355" y="340" type="qcurve" smooth="yes"/>
			<point x="1355" y="453"/>
			<point x="1072" y="574"/>
			<point x="856" y="637" type="qcurve" smooth="yes"/>
			<point x="710" y="680"/>
			<point x="598" y="777"/>
			<point x="598" y="858" type="qcurve" smooth="yes"/>
			<point x="598" y="924"/>
			<point x="686" y="1016"/>
			<point x="735" y="1051" type="qcurve" smooth="yes"/>
			<point x="802" y="1099"/>
			<point x="853" y="1157"/>
			<point x="853" y="1203" type="qcurve" smooth="yes"/>
			<point x="853" y="1270"/>
			<point x="744" y="1352"/>
			<point x="617" y="1352" type="qcurve" smooth="yes"/>
			<point x="473" y="1352"/>
			<point x="339" y="1180"/>
			<point x="339" y="1011" type="qcurve" smooth="yes"/>
			<point x="339" y="355" type="line" smooth="yes"/>
			<point x="339" y="184"/>
			<point x="209" y="-16"/>
		</contour>
	</outline>
</glyph>
<glyph name="quotesinglbase" format="2">
	<unicode hex="201A"/>
	<advance width="410"/>
	<outline>
		<contour>
			<point x="290" y="220" type="line"/>
			<point x="290" y="99" type="line" smooth="yes"/>
			<point x="290" y="9"/>
			<point x="212" y="-186"/>
			<point x="132" y="-254" type="qcurve"/>
			<point x="52" y="-198" type="line"/>
			<point x="104" y="-132"/>
			<point x="165" y="15"/>
			<point x="165" y="96" type="qcurve" smooth="yes"/>
			<point x="165" y="220" type="line"/>
		</contour>
	</outline>
</glyph>
<glyph name="quotedblleft" format="2">
	<unicode hex="201C"/>
	<advance width="830"/>
	<outline>
		<contour>
			<point x="120" y="1073" type="line"/>
			<point x="120" y="1194" type="line" smooth="yes"/>
			<point x="120" y="1284"/>
			<point x="198" y="1479"/>
			<point x="278" y="1547" type="qcurve"/>
			<point x="358" y="1491" type="line"/>
			<point x="306" y="1425"/>
			<point x="245" y="1278"/>
			<point x="245" y="1197" type="qcurve" smooth="yes"/>
			<point x="245" y="1073" type="line"/>
		</contour>
		<contour>
			<point x="540" y="1073" type="line"/>
			<point x="540" y="1194" type="line" smooth="yes"/>
			<point x="540" y="1284"/>
			<point x="618" y="1479"/>
			<point x="698" y="1547" type="qcurve"/>
			<point x="778" y="1491" type="line"/>
			<point x="726" y="1425"/>
			<point x="665" y="1278"/>
			<point x="665" y="1197" type="qcurve" smooth="yes"/>
			<point x="665" y="1073" type="line"/>
		</contour>
	</outline>
</glyph>
<glyph name="quotedblright" format="2">
	<unicode hex="201D"/>
	<advance width="830"/>
	<outline>
		<contour>
			<point x="710" y="1455" type="line"/>
			<point x="710" y="1334" type="line" smooth="yes"/>
			<point x="710" y="1244"/>
			<point x="632" y="1049"/>
			<point x="552" y="981" type="qcurve"/>
			<point x="472" y="1037" type="line"/>
			<point x="524" y="1103"/>
			<point x="585" y="1250"/>
			<point x="585" y="1331" type="qcurve" smooth="yes"/>
			<point x="585" y="1455" type="line"/>
		</contour>
		<contour>
			<point x="290" y="1455" type="line"/>
			<point x="290" y="1334" type="line" smooth="yes"/>
			<point x="290" y="1244"/>
			<point x="212" y="1049"/>
			<point x="132" y="981" type="qcurve"/>
			<point x="52" y="1037" type="line"/>
			<point x="104" y="1103"/>
			<point x="165" y="1250"/>
			<point x="165" y="1331" type="qcurve" smooth="yes"/>
			<point x="165" y="1455" type="line"/>
		</contour>
	</outline>
</glyph>
<glyph name="daggerdbl" format="2">
	<unicode hex="2021"/>
	<advance width="1008"/>
	<outline>
		<contour>
			<point x="95" y="873" type="line"/>
			<point x="95" y="1005" type="line"/>
			<point x="913" y="1005" type="line"/>
			<point x="913" y="873" type="line"/>
		</contour>
		<contour>
			<point x="95" y="55" type="line"/>
			<point x="95" y="187" type="line"/>
			<point x="913" y="187" type="line"/>
			<point x="913" y="55" type="line"/>
		</contour>
		<contour>
			<point x="438" y="-451" type="line"/>
			<point x="449" y="152" type="line"/>
			<point x="440" y="536" type="line"/>
			<point x="450" y="905" type="line"/>
			<point x="438" y="1508" type="line"/>
			<point x="569" y="1508" type="line"/>
			<point x="557" y="905" type="line"/>
			<point x="567" y="535" type="line"/>
			<point x="557" y="152" type="line"/>
			<point x="568" y="-451" type="line"/>
		</contour>
	</outline>
</glyph>
<glyph name="minute" format="2">
	<unicode hex="2032"/>
	<advance width="654"/>
	<outline>
		<contour>
			<point x="118" y="953" type="line"/>
			<point x="425" y="1542" type="line"/>
			<point x="556" y="1470" type="line"/>
			<point x="217" y="892" type="line"/>
		</contour>
	</outline>
</glyph>
<glyph name="guilsinglright" format="2">
	<unicode hex="203A"/>
	<advance width="652"/>
	<outline>
		<contour>
			<point x="104" y="153" type="line"/>
			<point x="384" y="551" type="line"/>
			<point x="104" y="949" type="line"/>
			<point x="228" y="949" type="line"/>
			<point x="521" y="571" type="line"/>
			<point x="521" y="529" type="line"/>
			<point x="228" y="153" type="line"/>
		</contour>
	</outline>
	<guideline y="901" identifier="Amp5Ormvx4"/>
	<guideline y="555" identifier="JDX5vz3jKp"/>
</glyph>
<glyph name="foursuperior" format="2">
	<unicode hex="2074"/>
	<advance width="751"/>
	<outline>
		<contour>
			<point x="461" y="697" type="line"/>
			<point x="461" y="912" type="line"/>
			<point x="461" y="929" type="line"/>
			<point x="461" y="1436" type="line"/>
			<point x="461" y="1496" type="line"/>
			<point x="569" y="1496" type="line"/>
			<point x="569" y="697" type="line"/>
		</contour>
		<contour>
			<point x="83" y="880" type="line"/>
			<point x="83" y="950" type="line"/>
			<point x="460" y="1496" type="line"/>
			<point x="569" y="1496" type="line"/>
			<point x="569" y="1352" type="line"/>
			<point x="461" y="1352" type="line"/>
			<point x="191" y="969" type="line"/>
			<point x="511" y="969" type="line"/>
			<point x="528" y="969" type="line"/>
			<point x="673" y="969" type="line"/>
			<point x="673" y="880" type="line"/>
		</contour>
	</outline>
</glyph>
<glyph name="coloncurrency" format="2">
	<unicode hex="20A1"/>
	<advance width="1154"/>
	<outline>
		<contour>
			<point x="105" y="612" type="qcurve" smooth="yes"/>
			<point x="105" y="844" type="line" smooth="yes"/>
			<point x="105" y="1154"/>
			<point x="384" y="1486"/>
			<point x="621" y="1486" type="qcurve" smooth="yes"/>
			<point x="859" y="1486"/>
			<point x="1103" y="1233"/>
			<point x="1103" y="1040" type="qcurve" smooth="yes"/>
			<point x="1103" y="990" type="line"/>
			<point x="979" y="990" type="line"/>
			<point x="979" y="1041" type="line" smooth="yes"/>
			<point x="979" y="1178"/>
			<point x="810" y="1368"/>
			<point x="621" y="1368" type="qcurve" smooth="yes"/>
			<point x="434" y="1368"/>
			<point x="232" y="1101"/>
			<point x="232" y="844" type="qcurve" smooth="yes"/>
			<point x="232" y="612" type="line" smooth="yes"/>
			<point x="232" y="354"/>
			<point x="441" y="80"/>
			<point x="633" y="80" type="qcurve" smooth="yes"/>
			<point x="817" y="80"/>
			<point x="984" y="279"/>
			<point x="984" y="426" type="qcurve" smooth="yes"/>
			<point x="984" y="466" type="line"/>
			<point x="1112" y="466" type="line"/>
			<point x="1112" y="426" type="line" smooth="yes"/>
			<point x="1112" y="240"/>
			<point x="867" y="-30"/>
			<point x="633" y="-30" type="qcurve" smooth="yes"/>
			<point x="388" y="-30"/>
			<point x="105" y="308"/>
		</contour>
		<contour>
			<point x="536" y="720" type="line"/>
			<point x="440" y="40" type="line"/>
			<point x="442" y="13" type="line"/>
			<point x="423" y="-125" type="line"/>
			<point x="314" y="-125" type="line"/>
			<point x="346" y="101" type="line"/>
			<point x="357" y="127" type="line"/>
			<point x="445" y="741" type="line"/>
		</contour>
		<contour>
			<point x="665" y="1570" type="line"/>
			<point x="646" y="1440" type="line"/>
			<point x="637" y="1424" type="line"/>
			<point x="536" y="720" type="line"/>
			<point x="445" y="741" type="line"/>
			<point x="542" y="1424" type="line"/>
			<point x="538" y="1441" type="line"/>
			<point x="557" y="1570" type="line"/>
		</contour>
		<contour>
			<point x="799" y="674" type="line"/>
			<point x="707" y="25" type="line"/>
			<point x="711" y="7" type="line"/>
			<point x="692" y="-125" type="line"/>
			<point x="583" y="-125" type="line"/>
			<point x="601" y="3" type="line"/>
			<point x="611" y="22" type="line"/>
			<point x="707" y="696" type="line"/>
		</contour>
		<contour>
			<point x="934" y="1570" type="line"/>
			<point x="903" y="1374" type="line"/>
			<point x="894" y="1351" type="line"/>
			<point x="799" y="674" type="line"/>
			<point x="707" y="696" type="line"/>
			<point x="810" y="1420" type="line"/>
			<point x="806" y="1438" type="line"/>
			<point x="826" y="1570" type="line"/>
		</contour>
	</outline>
	<guideline y="1570" identifier="0DwZ2nfhdf"/>
</glyph>
<glyph name="lira" format="2">
	<unicode hex="20A4"/>
	<advance width="1024"/>
	<outline>
		<contour>
			<point x="1014" y="0" type="line"/>
			<point x="49" y="0" type="line"/>
			<point x="49" y="122" type="line"/>
			<point x="111" y="122" type="line" smooth="yes"/>
			<point x="203" y="122"/>
			<point x="296" y="315"/>
			<point x="279" y="480" type="qcurve" smooth="yes"/>
			<point x="221" y="1032" type="line" smooth="yes"/>
			<point x="199" y="1237"/>
			<point x="399" y="1475"/>
			<point x="586" y="1475" type="qcurve" smooth="yes"/>
			<point x="768" y="1475"/>
			<point x="959" y="1270"/>
			<point x="959" y="1102" type="qcurve" smooth="yes"/>
			<point x="959" y="1087" type="line"/>
			<point x="828" y="1087" type="line"/>
			<point x="828" y="1103" type="line" smooth="yes"/>
			<point x="828" y="1230"/>
			<point x="700" y="1356"/>
			<point x="588" y="1356" type="qcurve" smooth="yes"/>
			<point x="471" y="1356"/>
			<point x="333" y="1185"/>
			<point x="349" y="1033" type="qcurve" smooth="yes"/>
			<point x="405" y="508" type="line" smooth="yes"/>
			<point x="421" y="355"/>
			<point x="356" y="166"/>
			<point x="282" y="126" type="qcurve"/>
			<point x="1014" y="126" type="line"/>
		</contour>
		<contour>
			<point x="855" y="453" type="line"/>
			<point x="56" y="453" type="line"/>
			<point x="56" y="568" type="line"/>
			<point x="855" y="568" type="line"/>
		</contour>
		<contour>
			<point x="855" y="778" type="line"/>
			<point x="56" y="778" type="line"/>
			<point x="56" y="893" type="line"/>
			<point x="855" y="893" type="line"/>
		</contour>
	</outline>
</glyph>
<glyph name="naira" format="2">
	<unicode hex="20A6"/>
	<advance width="1024"/>
	<outline>
		<contour>
			<point x="892" y="1456" type="line"/>
			<point x="892" y="0" type="line"/>
			<point x="762" y="0" type="line"/>
			<point x="265" y="1206" type="line"/>
			<point x="232" y="1317" type="line"/>
			<point x="220" y="1317" type="line"/>
			<point x="228" y="1189" type="line"/>
			<point x="228" y="0" type="line"/>
			<point x="126" y="0" type="line"/>
			<point x="126" y="1456" type="line"/>
			<point x="258" y="1456" type="line"/>
			<point x="743" y="273" type="line"/>
			<point x="782" y="154" type="line"/>
			<point x="796" y="156" type="line"/>
			<point x="789" y="277" type="line"/>
			<point x="789" y="1456" type="line"/>
		</contour>
		<contour>
			<point x="549" y="657" type="line"/>
			<point x="837" y="657" type="line"/>
			<point x="837" y="661" type="line"/>
			<point x="1002" y="663" type="line"/>
			<point x="1002" y="558" type="line"/>
			<point x="837" y="556" type="line"/>
			<point x="837" y="564" type="line"/>
			<point x="549" y="564" type="line"/>
		</contour>
		<contour>
			<point x="22" y="556" type="line"/>
			<point x="22" y="661" type="line"/>
			<point x="179" y="661" type="line"/>
			<point x="179" y="657" type="line"/>
			<point x="549" y="657" type="line"/>
			<point x="549" y="564" type="line"/>
			<point x="179" y="564" type="line"/>
			<point x="179" y="556" type="line"/>
		</contour>
		<contour>
			<point x="536" y="962" type="line"/>
			<point x="837" y="962" type="line"/>
			<point x="837" y="970" type="line"/>
			<point x="1002" y="972" type="line"/>
			<point x="1002" y="867" type="line"/>
			<point x="837" y="865" type="line"/>
			<point x="837" y="869" type="line"/>
			<point x="536" y="869" type="line"/>
		</contour>
		<contour>
			<point x="22" y="865" type="line"/>
			<point x="22" y="970" type="line"/>
			<point x="179" y="970" type="line"/>
			<point x="179" y="962" type="line"/>
			<point x="536" y="962" type="line"/>
			<point x="536" y="869" type="line"/>
			<point x="179" y="869" type="line"/>
			<point x="179" y="865" type="line"/>
		</contour>
	</outline>
</glyph>
<glyph name="peseta" format="2">
	<unicode hex="20A7"/>
	<advance width="1681"/>
	<outline>
		<contour>
			<point x="572" y="565" type="qcurve"/>
			<point x="250" y="565" type="line"/>
			<point x="250" y="681" type="line"/>
			<point x="572" y="681" type="line"/>
			<point x="738" y="681"/>
			<point x="849" y="879"/>
			<point x="849" y="1009" type="qcurve"/>
			<point x="849" y="1140"/>
			<point x="738" y="1339"/>
			<point x="572" y="1339" type="qcurve"/>
			<point x="313" y="1339" type="line"/>
			<point x="313" y="0" type="line"/>
			<point x="187" y="0" type="line"/>
			<point x="187" y="1456" type="line"/>
			<point x="572" y="1456" type="line"/>
			<point x="789" y="1456"/>
			<point x="976" y="1202"/>
			<point x="976" y="1010" type="qcurve"/>
			<point x="976" y="819"/>
			<point x="789" y="565"/>
		</contour>
		<contour>
			<point x="1540" y="1026" type="line"/>
			<point x="1540" y="917" type="line"/>
			<point x="908" y="917" type="line"/>
			<point x="908" y="1026" type="line"/>
		</contour>
		<contour>
			<point x="1152" y="1345" type="line"/>
			<point x="1278" y="1345" type="line"/>
			<point x="1278" y="277" type="line"/>
			<point x="1278" y="170"/>
			<point x="1357" y="101"/>
			<point x="1420" y="101" type="qcurve" smooth="yes"/>
			<point x="1468" y="101"/>
			<point x="1541" y="113"/>
			<point x="1594" y="129" type="qcurve"/>
			<point x="1594" y="14" type="line"/>
			<point x="1538" y="-6"/>
			<point x="1428" y="-20"/>
			<point x="1380" y="-20" type="qcurve" smooth="yes"/>
			<point x="1279" y="-20"/>
			<point x="1152" y="110"/>
			<point x="1152" y="279" type="qcurve"/>
		</contour>
	</outline>
</glyph>
<glyph name="won" format="2">
	<unicode hex="20A9"/>
	<advance width="1796"/>
	<outline>
		<contour>
			<point x="513" y="-10" type="line"/>
			<point x="155" y="1456" type="line"/>
			<point x="273" y="1456" type="line"/>
			<point x="547" y="296" type="line"/>
			<point x="570" y="166" type="line"/>
			<point x="576" y="166" type="line"/>
			<point x="599" y="296" type="line" smooth="yes"/>
			<point x="832" y="1456" type="line"/>
			<point x="969" y="1456" type="line"/>
			<point x="1236" y="294" type="line"/>
			<point x="1259" y="166" type="line"/>
			<point x="1265" y="166" type="line"/>
			<point x="1286" y="294" type="line" smooth="yes"/>
			<point x="1528" y="1456" type="line"/>
			<point x="1639" y="1456" type="line"/>
			<point x="1320" y="-10" type="line"/>
			<point x="1197" y="-10" type="line"/>
			<point x="933" y="1169" type="line"/>
			<point x="906" y="1300" type="line"/>
			<point x="900" y="1300" type="line"/>
			<point x="875" y="1169" type="line" smooth="yes"/>
			<point x="637" y="-10" type="line"/>
		</contour>
		<contour>
			<point x="904" y="992" type="line"/>
			<point x="1492" y="992" type="line"/>
			<point x="1492" y="1000" type="line"/>
			<point x="1710" y="1002" type="line"/>
			<point x="1710" y="897" type="line"/>
			<point x="1485" y="895" type="line"/>
			<point x="1485" y="899" type="line"/>
			<point x="904" y="899" type="line"/>
		</contour>
		<contour>
			<point x="86" y="895" type="line"/>
			<point x="86" y="1000" type="line"/>
			<point x="325" y="1000" type="line"/>
			<point x="326" y="992" type="line"/>
			<point x="904" y="992" type="line"/>
			<point x="904" y="899" type="line"/>
			<point x="333" y="899" type="line"/>
			<point x="334" y="895" type="line"/>
		</contour>
		<contour>
			<point x="902" y="637" type="line"/>
			<point x="1413" y="637" type="line"/>
			<point x="1413" y="641" type="line"/>
			<point x="1665" y="643" type="line"/>
			<point x="1665" y="538" type="line"/>
			<point x="1406" y="536" type="line"/>
			<point x="1406" y="544" type="line"/>
			<point x="902" y="544" type="line"/>
		</contour>
		<contour>
			<point x="123" y="536" type="line"/>
			<point x="123" y="641" type="line"/>
			<point x="414" y="641" type="line"/>
			<point x="415" y="637" type="line"/>
			<point x="902" y="637" type="line"/>
			<point x="902" y="544" type="line"/>
			<point x="421" y="544" type="line"/>
			<point x="422" y="536" type="line"/>
		</contour>
	</outline>
</glyph>
<glyph name="dong" format="2">
	<unicode hex="20AB"/>
	<advance width="1024"/>
	<outline>
		<contour>
			<point x="45" y="480" type="qcurve" smooth="yes"/>
			<point x="45" y="492" type="line" smooth="yes"/>
			<point x="45" y="714"/>
			<point x="235" y="992"/>
			<point x="424" y="992" type="qcurve" smooth="yes"/>
			<point x="525" y="992"/>
			<point x="681" y="925"/>
			<point x="741" y="868" type="qcurve"/>
			<point x="741" y="1456" type="line"/>
			<point x="861" y="1456" type="line"/>
			<point x="861" y="0" type="line"/>
			<point x="753" y="0" type="line"/>
			<point x="747" y="137" type="line"/>
			<point x="745" y="137" type="line"/>
			<point x="703" y="72"/>
			<point x="524" y="-20"/>
			<point x="437" y="-20" type="qcurve" smooth="yes"/>
			<point x="235" y="-20"/>
			<point x="45" y="251"/>
		</contour>
		<contour>
			<point x="174" y="480" type="line" smooth="yes"/>
			<point x="174" y="295"/>
			<point x="297" y="97"/>
			<point x="444" y="97" type="qcurve" smooth="yes"/>
			<point x="547" y="97"/>
			<point x="706" y="202"/>
			<point x="741" y="271" type="qcurve"/>
			<point x="741" y="725" type="line"/>
			<point x="695" y="790"/>
			<point x="548" y="876"/>
			<point x="454" y="876" type="qcurve" smooth="yes"/>
			<point x="297" y="876"/>
			<point x="174" y="681"/>
			<point x="174" y="492" type="qcurve" smooth="yes"/>
		</contour>
		<contour>
			<point x="994" y="1174" type="line"/>
			<point x="325" y="1174" type="line"/>
			<point x="325" y="1286" type="line"/>
			<point x="994" y="1286" type="line"/>
		</contour>
		<contour>
			<point x="932" y="-233" type="line"/>
			<point x="75" y="-234" type="line"/>
			<point x="75" y="-128" type="line"/>
			<point x="932" y="-128" type="line"/>
		</contour>
	</outline>
</glyph>
<glyph name="uni20B2" format="2">
	<unicode hex="20B2"/>
	<advance width="1040"/>
	<outline>
		<contour>
			<point x="503" y="-190" type="line"/>
			<point x="503" y="43" type="line"/>
			<point x="515" y="53" type="line"/>
			<point x="515" y="708" type="line"/>
			<point x="605" y="708" type="line"/>
			<point x="605" y="53" type="line"/>
			<point x="619" y="45" type="line"/>
			<point x="619" y="-190" type="line"/>
		</contour>
		<contour>
			<point x="515" y="708" type="line"/>
			<point x="515" y="1413" type="line"/>
			<point x="505" y="1420" type="line"/>
			<point x="505" y="1632" type="line"/>
			<point x="615" y="1632" type="line"/>
			<point x="615" y="1420" type="line"/>
			<point x="605" y="1410" type="line"/>
			<point x="605" y="708" type="line"/>
		</contour>
		<contour>
			<point x="981" y="745" type="line"/>
			<point x="981" y="452" type="line" smooth="yes"/>
			<point x="981" y="232"/>
			<point x="775" y="-5"/>
			<point x="571" y="-5" type="qcurve" smooth="yes"/>
			<point x="344" y="-5"/>
			<point x="114" y="278"/>
			<point x="114" y="542" type="qcurve" smooth="yes"/>
			<point x="114" y="897" type="line" smooth="yes"/>
			<point x="114" y="1180"/>
			<point x="338" y="1485"/>
			<point x="556" y="1485" type="qcurve" smooth="yes"/>
			<point x="753" y="1485"/>
			<point x="973" y="1263"/>
			<point x="973" y="1053" type="qcurve" smooth="yes"/>
			<point x="973" y="1011" type="line"/>
			<point x="844" y="1011" type="line"/>
			<point x="844" y="1051" type="line" smooth="yes"/>
			<point x="844" y="1194"/>
			<point x="703" y="1365"/>
			<point x="556" y="1365" type="qcurve" smooth="yes"/>
			<point x="400" y="1365"/>
			<point x="246" y="1123"/>
			<point x="246" y="899" type="qcurve" smooth="yes"/>
			<point x="246" y="544" type="line" smooth="yes"/>
			<point x="246" y="337"/>
			<point x="414" y="115"/>
			<point x="571" y="115" type="qcurve" smooth="yes"/>
			<point x="725" y="115"/>
			<point x="864" y="282"/>
			<point x="864" y="433" type="qcurve" smooth="yes"/>
			<point x="864" y="625" type="line"/>
			<point x="706" y="625" type="line"/>
			<point x="706" y="745" type="line"/>
		</contour>
	</outline>
</glyph>
<glyph name="tenge" format="2">
	<unicode hex="20B8"/>
	<advance width="1024"/>
	<outline>
		<contour>
			<point x="447" y="0" type="line"/>
			<point x="447" y="1066" type="line"/>
			<point x="578" y="1066" type="line"/>
			<point x="578" y="0" type="line"/>
		</contour>
		<contour>
			<point x="44" y="1006" type="line"/>
			<point x="44" y="1126" type="line"/>
			<point x="980" y="1126" type="line"/>
			<point x="980" y="1006" type="line"/>
		</contour>
		<contour>
			<point x="44" y="1346" type="line"/>
			<point x="44" y="1456" type="line"/>
			<point x="980" y="1456" type="line"/>
			<point x="980" y="1346" type="line"/>
		</contour>
	</outline>
</glyph>
<glyph name="rupeeIndian" format="2">
	<unicode hex="20B9"/>
	<advance width="1024"/>
	<outline>
		<contour>
			<point x="17" y="952" type="line"/>
			<point x="17" y="1071" type="line"/>
			<point x="960" y="1071" type="line"/>
			<point x="960" y="952" type="line"/>
		</contour>
		<contour>
			<point x="839" y="0" type="line"/>
			<point x="686" y="283" type="line" smooth="yes"/>
			<point x="590" y="461"/>
			<point x="369" y="594"/>
			<point x="175" y="597" type="qcurve" smooth="yes"/>
			<point x="17" y="600" type="line"/>
			<point x="17" y="704" type="line"/>
			<point x="337" y="704" type="line" smooth="yes"/>
			<point x="516" y="704"/>
			<point x="681" y="879"/>
			<point x="681" y="1029" type="qcurve" smooth="yes"/>
			<point x="681" y="1165"/>
			<point x="526" y="1337"/>
			<point x="355" y="1337" type="qcurve" smooth="yes"/>
			<point x="17" y="1337" type="line"/>
			<point x="17" y="1456" type="line"/>
			<point x="969" y="1456" type="line"/>
			<point x="969" y="1338" type="line"/>
			<point x="717" y="1338" type="line"/>
			<point x="639" y="1344" type="line"/>
			<point x="641" y="1336" type="line"/>
			<point x="715" y="1307"/>
			<point x="807" y="1136"/>
			<point x="807" y="1029" type="qcurve" smooth="yes"/>
			<point x="807" y="842"/>
			<point x="626" y="656"/>
			<point x="450" y="642" type="qcurve"/>
			<point x="558" y="620"/>
			<point x="740" y="463"/>
			<point x="808" y="317" type="qcurve" smooth="yes"/>
			<point x="978" y="0" type="line"/>
		</contour>
	</outline>
</glyph>
<glyph name="manat" format="2">
	<unicode hex="20BC"/>
	<advance width="1024"/>
	<outline>
		<contour>
			<point x="941" y="915" type="qcurve" smooth="yes"/>
			<point x="941" y="-1" type="line"/>
			<point x="817" y="0" type="line"/>
			<point x="817" y="916" type="line" smooth="yes"/>
			<point x="817" y="1095"/>
			<point x="668" y="1290"/>
			<point x="512" y="1290" type="qcurve" smooth="yes"/>
			<point x="357" y="1290"/>
			<point x="207" y="1095"/>
			<point x="207" y="916" type="qcurve" smooth="yes"/>
			<point x="207" y="0" type="line"/>
			<point x="83" y="0" type="line"/>
			<point x="83" y="916" type="line" smooth="yes"/>
			<point x="83" y="1157"/>
			<point x="297" y="1416"/>
			<point x="512" y="1416" type="qcurve" smooth="yes"/>
			<point x="725" y="1416"/>
			<point x="940" y="1156"/>
		</contour>
		<contour>
			<point x="567" y="0" type="line"/>
			<point x="457" y="0" type="line"/>
			<point x="457" y="1582" type="line"/>
			<point x="567" y="1582" type="line"/>
		</contour>
	</outline>
</glyph>
<glyph name="arrowleft" format="2">
	<unicode hex="2190"/>
	<advance width="1723"/>
	<outline>
		<contour>
			<point x="1553" y="627.2337662338" type="line"/>
			<point x="451.829787234" y="627.2337662338" type="line"/>
			<point x="410.9361702128" y="693" type="line"/>
			<point x="451.829787234" y="758.5194805195" type="line"/>
			<point x="1553" y="758.5194805195" type="line"/>
		</contour>
		<contour>
			<point x="804" y="249" type="line"/>
			<point x="170" y="675.2553191489" type="line"/>
			<point x="170" y="710.7446808511" type="line"/>
			<point x="804" y="1135" type="line"/>
			<point x="827.7765957447" y="1103.1808510638" type="line"/>
			<point x="440.414893617" y="693" type="line"/>
			<point x="828.4468085106" y="282.1595744681" type="line"/>
		</contour>
	</outline>
</glyph>
<glyph name="arrowright" format="2">
	<unicode hex="2192"/>
	<advance width="1723"/>
	<outline>
		<contour>
			<point x="170" y="628.7142857143" type="line"/>
			<point x="170" y="760" type="line"/>
			<point x="1271.5" y="760" type="line"/>
			<point x="1312.0638297872" y="696.3510638298" type="line"/>
			<point x="1271.829787234" y="628.7142857143" type="line"/>
		</contour>
		<contour>
			<point x="919" y="249" type="line"/>
			<point x="894.5531914894" y="282.1595744681" type="line"/>
			<point x="1281.2446808511" y="696.3510638298" type="line"/>
			<point x="895.2234042553" y="1103.1808510638" type="line"/>
			<point x="919" y="1135" type="line"/>
			<point x="1553" y="710.7446808511" type="line"/>
			<point x="1553" y="675.2553191489" type="line"/>
		</contour>
	</outline>
	<guideline x="1094" y="773" angle="90" identifier="xShtOjvBze"/>
</glyph>
<glyph name="divisionslash" format="2">
	<unicode hex="2215"/>
	<advance width="656"/>
	<outline>
		<contour>
			<point x="-31" y="-121" type="line"/>
			<point x="579" y="1536" type="line"/>
			<point x="688" y="1536" type="line"/>
			<point x="77" y="-121" type="line"/>
		</contour>
	</outline>
</glyph>
<glyph name="rightanglebracket" format="2">
	<unicode hex="27E9"/>
	<advance width="727"/>
	<outline>
		<contour>
			<point x="27" y="-238" type="line"/>
			<point x="585" y="591" type="line"/>
			<point x="28" y="1435" type="line"/>
			<point x="114" y="1499" type="line"/>
			<point x="715" y="638" type="line"/>
			<point x="715" y="550" type="line"/>
			<point x="114" y="-304" type="line"/>
		</contour>
	</outline>
</glyph>
<glyph name="Tse" format="2">
	<advance width="1478"/>
	<outline>
		<contour>
			<point x="1280" y="-290" type="line"/>
			<point x="1280" y="0" type="line"/>
			<point x="195" y="0" type="line"/>
			<point x="195" y="1456" type="line"/>
			<point x="325" y="1456" type="line"/>
			<point x="325" y="120" type="line"/>
			<point x="1111" y="120" type="line"/>
			<point x="1111" y="1456" type="line"/>
			<point x="1242" y="1456" type="line"/>
			<point x="1242" y="120" type="line"/>
			<point x="1397" y="120" type="line"/>
			<point x="1397" y="-290" type="line"/>
		</contour>
	</outline>
</glyph>
<glyph name="Yi-dieresiscomb.case" format="2">
	<outline>
		<contour>
			<point x="-211.3292514924" y="1752.7021276596" type="qcurve" smooth="yes"/>
			<point x="-211.3292514924" y="1791.8829787234"/>
			<point x="-172.4888259605" y="1834.0744680851"/>
			<point x="-136.6590387265" y="1834.0744680851" type="qcurve" smooth="yes"/>
			<point x="-102.8398897903" y="1834.0744680851"/>
			<point x="-62.3186131946" y="1789.2021276596"/>
			<point x="-62.3186131946" y="1752.7021276596" type="qcurve" smooth="yes"/>
			<point x="-62.3186131946" y="1714.1914893617"/>
			<point x="-100.1590387265" y="1672"/>
			<point x="-136.6590387265" y="1672" type="qcurve" smooth="yes"/>
			<point x="-170.4781876626" y="1672"/>
			<point x="-211.3292514924" y="1716.2021276596"/>
		</contour>
		<contour>
			<point x="55.9888259605" y="1752.7021276596" type="qcurve" smooth="yes"/>
			<point x="55.9888259605" y="1791.8829787234"/>
			<point x="94.8292514924" y="1834.0744680851"/>
			<point x="130.6590387265" y="1834.0744680851" type="qcurve" smooth="yes"/>
			<point x="164.4781876626" y="1834.0744680851"/>
			<point x="204.9994642584" y="1789.2021276596"/>
			<point x="204.9994642584" y="1752.7021276596" type="qcurve" smooth="yes"/>
			<point x="204.9994642584" y="1714.1914893617"/>
			<point x="167.1590387265" y="1672"/>
			<point x="130.6590387265" y="1672" type="qcurve" smooth="yes"/>
			<point x="96.8398897903" y="1672"/>
			<point x="55.9888259605" y="1716.2021276596"/>
		</contour>
	</outline>
	<anchor name="_top" x="0" y="1456"/>
</glyph>
<glyph name="breveinvertedcomb-stack.case" format="2">
	<outline>
		<contour>
			<point x="-269" y="1614" type="qcurve"/>
			<point x="-353" y="1664" type="line"/>
			<point x="-308" y="1767"/>
			<point x="-123" y="1906"/>
			<point x="0" y="1906" type="qcurve"/>
			<point x="124" y="1906"/>
			<point x="309" y="1767"/>
			<point x="354" y="1664" type="qcurve"/>
			<point x="270" y="1614" type="line"/>
			<point x="227" y="1690"/>
			<point x="92" y="1798"/>
			<point x="0" y="1798" type="qcurve"/>
			<point x="-91" y="1798"/>
			<point x="-226" y="1690"/>
		</contour>
	</outline>
	<anchor name="_top" x="0" y="1456"/>
	<anchor name="top" x="0" y="1906"/>
</glyph>
<glyph name="cedillacomb.case" format="2">
	<outline>
		<contour>
			<point x="-54" y="20" type="line"/>
			<point x="41" y="20" type="line"/>
			<point x="13" y="-105" type="line"/>
			<point x="105" y="-119"/>
			<point x="217" y="-208"/>
			<point x="217" y="-283" type="qcurve" smooth="yes"/>
			<point x="217" y="-383"/>
			<point x="1" y="-503"/>
			<point x="-196" y="-503" type="qcurve"/>
			<point x="-201" y="-399" type="line"/>
			<point x="-69" y="-399"/>
			<point x="79" y="-345"/>
			<point x="79" y="-284" type="qcurve" smooth="yes"/>
			<point x="79" y="-229"/>
			<point x="-1" y="-183"/>
			<point x="-93" y="-175" type="qcurve"/>
		</contour>
	</outline>
	<anchor name="_bottom" x="0" y="0"/>
	<anchor name="bottom" x="0" y="-517"/>
</glyph>
<glyph name="circumflexcomb.case" format="2">
	<outline>
		<contour>
			<point x="-181" y="1635" type="line"/>
			<point x="-309" y="1635" type="line"/>
			<point x="-46" y="1975" type="line"/>
			<point x="47" y="1975" type="line"/>
			<point x="311" y="1635" type="line"/>
			<point x="183" y="1635" type="line"/>
			<point x="0" y="1867" type="line"/>
		</contour>
	</outline>
	<anchor name="_top" x="0" y="1456"/>
	<anchor name="top" x="0" y="1975"/>
</glyph>
<glyph name="dblgravecomb" format="2">
	<outline>
		<contour>
			<point x="151" y="1215" type="line"/>
			<point x="-93" y="1490" type="line"/>
			<point x="0" y="1567" type="line"/>
			<point x="231" y="1276" type="line"/>
		</contour>
		<contour>
			<point x="-187" y="1215" type="line"/>
			<point x="-431" y="1490" type="line"/>
			<point x="-338" y="1567" type="line"/>
			<point x="-107" y="1276" type="line"/>
		</contour>
	</outline>
	<anchor name="_top" x="0" y="1052"/>
	<anchor name="top" x="0" y="1599"/>
</glyph>
<glyph name="diagonalbarO" format="2">
	<advance width="623"/>
	<outline>
		<contour>
			<point x="29" y="-129" type="line"/>
			<point x="80" y="70" type="line"/>
			<point x="93" y="67" type="line"/>
			<point x="283" y="793" type="line"/>
			<point x="360" y="752" type="line"/>
			<point x="175" y="40" type="line"/>
			<point x="188" y="36" type="line"/>
			<point x="145" y="-129" type="line"/>
		</contour>
		<contour>
			<point x="478" y="1598" type="line"/>
			<point x="595" y="1598" type="line"/>
			<point x="545" y="1404" type="line"/>
			<point x="531" y="1407" type="line"/>
			<point x="360" y="752" type="line"/>
			<point x="283" y="793" type="line"/>
			<point x="449" y="1436" type="line"/>
			<point x="435" y="1439" type="line"/>
		</contour>
	</outline>
</glyph>
<glyph name="dieresiscomb-stack.case" format="2">
	<outline>
		<contour>
			<point x="-310" y="1683" type="qcurve" smooth="yes"/>
			<point x="-310" y="1721"/>
			<point x="-268" y="1763"/>
			<point x="-230" y="1763" type="qcurve" smooth="yes"/>
			<point x="-193" y="1763"/>
			<point x="-149" y="1719"/>
			<point x="-149" y="1683" type="qcurve" smooth="yes"/>
			<point x="-149" y="1646"/>
			<point x="-190" y="1604"/>
			<point x="-230" y="1604" type="qcurve" smooth="yes"/>
			<point x="-266" y="1604"/>
			<point x="-310" y="1648"/>
		</contour>
		<contour>
			<point x="149" y="1683" type="qcurve" smooth="yes"/>
			<point x="149" y="1721"/>
			<point x="191" y="1763"/>
			<point x="230" y="1763" type="qcurve" smooth="yes"/>
			<point x="266" y="1763"/>
			<point x="310" y="1719"/>
			<point x="310" y="1683" type="qcurve" smooth="yes"/>
			<point x="310" y="1646"/>
			<point x="269" y="1604"/>
			<point x="230" y="1604" type="qcurve" smooth="yes"/>
			<point x="193" y="1604"/>
			<point x="149" y="1648"/>
		</contour>
	</outline>
	<anchor name="_top" x="0" y="1456"/>
	<anchor name="top" x="0" y="1762.0744680851"/>
</glyph>
<glyph name="dotaccentcomb-stack.case" format="2">
	<outline>
		<contour>
			<point x="-80" y="1693" type="qcurve" smooth="yes"/>
			<point x="-80" y="1726"/>
			<point x="-38" y="1770"/>
			<point x="0" y="1770" type="qcurve" smooth="yes"/>
			<point x="39" y="1770"/>
			<point x="81" y="1726"/>
			<point x="81" y="1693" type="qcurve" smooth="yes"/>
			<point x="81" y="1660"/>
			<point x="39" y="1615"/>
			<point x="0" y="1615" type="qcurve" smooth="yes"/>
			<point x="-38" y="1615"/>
			<point x="-80" y="1660"/>
		</contour>
	</outline>
	<anchor name="_top" x="0" y="1456"/>
	<anchor name="top" x="0" y="1777.6276595745"/>
</glyph>
<glyph name="dotaccentcombstack.case" format="2">
	<outline>
		<contour>
			<point x="-80" y="1692" type="qcurve" smooth="yes"/>
			<point x="-80" y="1725"/>
			<point x="-38" y="1769"/>
			<point x="0" y="1769" type="qcurve" smooth="yes"/>
			<point x="39" y="1769"/>
			<point x="81" y="1725"/>
			<point x="81" y="1692" type="qcurve" smooth="yes"/>
			<point x="81" y="1659"/>
			<point x="39" y="1614"/>
			<point x="0" y="1614" type="qcurve" smooth="yes"/>
			<point x="-38" y="1614"/>
			<point x="-80" y="1659"/>
		</contour>
	</outline>
	<anchor name="_top" x="0" y="1536"/>
	<anchor name="top" x="0" y="1777.2978723404"/>
</glyph>
<glyph name="dotbelowcomb.case" format="2">
	<outline>
		<contour>
			<point x="-80" y="-262" type="qcurve" smooth="yes"/>
			<point x="-80" y="-229"/>
			<point x="-38" y="-185"/>
			<point x="0" y="-185" type="qcurve" smooth="yes"/>
			<point x="39" y="-185"/>
			<point x="81" y="-229"/>
			<point x="81" y="-262" type="qcurve" smooth="yes"/>
			<point x="81" y="-295"/>
			<point x="39" y="-339"/>
			<point x="0" y="-339" type="qcurve" smooth="yes"/>
			<point x="-38" y="-339"/>
			<point x="-80" y="-295"/>
		</contour>
	</outline>
	<anchor name="_bottom" x="0" y="0"/>
	<anchor name="bottom" x="0" y="-339.7234042553"/>
</glyph>
<glyph name="four.prop" format="2">
	<advance width="1011"/>
	<outline>
		<contour>
			<point x="664" y="0" type="line"/>
			<point x="664" y="408" type="line"/>
			<point x="664" y="442" type="line"/>
			<point x="664" y="1355" type="line"/>
			<point x="669" y="1456" type="line"/>
			<point x="786" y="1456" type="line"/>
			<point x="786" y="0" type="line"/>
		</contour>
		<contour>
			<point x="-1" y="369" type="line"/>
			<point x="-1" y="455" type="line"/>
			<point x="664" y="1456" type="line"/>
			<point x="786" y="1456" type="line"/>
			<point x="786" y="1248" type="line"/>
			<point x="652" y="1248" type="line"/>
			<point x="149" y="477" type="line"/>
			<point x="698" y="477" type="line"/>
			<point x="751" y="477" type="line"/>
			<point x="997" y="477" type="line"/>
			<point x="997" y="369" type="line"/>
		</contour>
	</outline>
</glyph>
<glyph name="ghe.bgr" format="2">
	<advance width="1010"/>
	<outline>
		<contour>
			<point x="904" y="310" type="line"/>
			<point x="904" y="305" type="line" smooth="yes"/>
			<point x="904" y="145"/>
			<point x="693" y="-30"/>
			<point x="500" y="-30" type="qcurve" smooth="yes"/>
			<point x="307" y="-30"/>
			<point x="106" y="143"/>
			<point x="106" y="287" type="qcurve" smooth="yes"/>
			<point x="106" y="412"/>
			<point x="283" y="562"/>
			<point x="450" y="600" type="qcurve" smooth="yes"/>
			<point x="622" y="638"/>
			<point x="753" y="725"/>
			<point x="753" y="790" type="qcurve" smooth="yes"/>
			<point x="753" y="867"/>
			<point x="635" y="966"/>
			<point x="510" y="966" type="qcurve" smooth="yes"/>
			<point x="384" y="966"/>
			<point x="264" y="861"/>
			<point x="264" y="769" type="qcurve" smooth="yes"/>
			<point x="264" y="760" type="line"/>
			<point x="138" y="760" type="line"/>
			<point x="138" y="766" type="line" smooth="yes"/>
			<point x="138" y="911"/>
			<point x="336" y="1082"/>
			<point x="510" y="1082" type="qcurve" smooth="yes"/>
			<point x="683" y="1082"/>
			<point x="879" y="910"/>
			<point x="879" y="783" type="qcurve" smooth="yes"/>
			<point x="879" y="671"/>
			<point x="690" y="532"/>
			<point x="518" y="493" type="qcurve" smooth="yes"/>
			<point x="351" y="456"/>
			<point x="231" y="357"/>
			<point x="231" y="280" type="qcurve" smooth="yes"/>
			<point x="231" y="190"/>
			<point x="374" y="86"/>
			<point x="500" y="86" type="qcurve" smooth="yes"/>
			<point x="626" y="86"/>
			<point x="777" y="194"/>
			<point x="777" y="305" type="qcurve" smooth="yes"/>
			<point x="777" y="310" type="line"/>
		</contour>
	</outline>
</glyph>
<glyph name="gravecomb-stack" format="2">
	<outline>
		<contour>
			<point x="-20" y="1215" type="line"/>
			<point x="-241" y="1463" type="line"/>
			<point x="-134" y="1530" type="line"/>
			<point x="66" y="1273" type="line"/>
		</contour>
	</outline>
	<anchor name="top" x="0" y="1561"/>
	<anchor name="_top" x="0" y="1052"/>
	<anchor name="_topright" x="0" y="1052"/>
</glyph>
<glyph name="gravecomb.case" format="2">
	<outline>
		<contour>
			<point x="-10" y="1600" type="line"/>
			<point x="-247" y="1876" type="line"/>
			<point x="-140" y="1943" type="line"/>
			<point x="75.8441558442" y="1657.4805194805" type="line"/>
		</contour>
	</outline>
	<anchor name="_top" x="0" y="1455"/>
	<anchor name="top" x="0" y="1974"/>
</glyph>
<glyph name="gravecombstack.case" format="2">
	<outline>
		<contour>
			<point x="128" y="1570" type="line"/>
			<point x="-243" y="1775" type="line"/>
			<point x="-170" y="1886" type="line"/>
			<point x="188" y="1659" type="line"/>
		</contour>
	</outline>
	<anchor name="_top" x="0" y="1536"/>
	<anchor name="top" x="0" y="1892.2872340426"/>
</glyph>
<glyph name="hard.bgr" format="2">
	<advance width="1260"/>
	<outline>
		<contour>
			<point x="346" y="351" type="qcurve" smooth="yes"/>
			<point x="346" y="941" type="line"/>
			<point x="56" y="941" type="line"/>
			<point x="56" y="1052" type="line"/>
			<point x="472" y="1052" type="line"/>
			<point x="472" y="351" type="line" smooth="yes"/>
			<point x="472" y="233"/>
			<point x="601" y="86"/>
			<point x="757" y="86" type="qcurve" smooth="yes"/>
			<point x="914" y="86"/>
			<point x="1045" y="233"/>
			<point x="1045" y="351" type="qcurve" smooth="yes"/>
			<point x="1045" y="465"/>
			<point x="923" y="607"/>
			<point x="777" y="607" type="qcurve" smooth="yes"/>
			<point x="411" y="607" type="line"/>
			<point x="411" y="718" type="line"/>
			<point x="777" y="718" type="line" smooth="yes"/>
			<point x="973" y="718"/>
			<point x="1172" y="521"/>
			<point x="1172" y="351" type="qcurve" smooth="yes"/>
			<point x="1172" y="177"/>
			<point x="965" y="-30"/>
			<point x="757" y="-30" type="qcurve" smooth="yes"/>
			<point x="550" y="-30"/>
			<point x="346" y="177"/>
		</contour>
	</outline>
</glyph>
<glyph name="hookabovecomb-stack" format="2">
	<outline>
		<contour>
			<point x="-50" y="1220" type="line"/>
			<point x="-50" y="1260" type="line" smooth="yes"/>
			<point x="-50" y="1302"/>
			<point x="-19" y="1341"/>
			<point x="39" y="1354" type="qcurve" smooth="yes"/>
			<point x="84" y="1365"/>
			<point x="132" y="1406"/>
			<point x="132" y="1440" type="qcurve" smooth="yes"/>
			<point x="132" y="1476"/>
			<point x="65" y="1513"/>
			<point x="0" y="1513" type="qcurve" smooth="yes"/>
			<point x="-58" y="1513"/>
			<point x="-157" y="1483"/>
			<point x="-175" y="1472" type="qcurve"/>
			<point x="-212" y="1558" type="line"/>
			<point x="-182" y="1574"/>
			<point x="-50" y="1611"/>
			<point x="20" y="1611" type="qcurve" smooth="yes"/>
			<point x="126" y="1611"/>
			<point x="244" y="1516"/>
			<point x="244" y="1440" type="qcurve" smooth="yes"/>
			<point x="244" y="1371"/>
			<point x="158" y="1279"/>
			<point x="34" y="1265" type="qcurve"/>
			<point x="34" y="1220" type="line"/>
		</contour>
	</outline>
	<anchor name="_top" x="0" y="1052"/>
	<anchor name="top" x="0" y="1657"/>
	<anchor name="_topright" x="0" y="1052"/>
</glyph>
<glyph name="hookabovecombstack.case" format="2">
	<outline>
		<contour>
			<point x="-126" y="1554" type="line"/>
			<point x="-126" y="1601" type="line" smooth="yes"/>
			<point x="-126" y="1645"/>
			<point x="-85" y="1685"/>
			<point x="-31" y="1693" type="qcurve" smooth="yes"/>
			<point x="20" y="1701"/>
			<point x="80" y="1732"/>
			<point x="80" y="1780" type="qcurve" smooth="yes"/>
			<point x="80" y="1825"/>
			<point x="31" y="1863"/>
			<point x="-46" y="1863" type="qcurve" smooth="yes"/>
			<point x="-107" y="1863"/>
			<point x="-205" y="1835"/>
			<point x="-222" y="1824" type="qcurve"/>
			<point x="-255" y="1906" type="line"/>
			<point x="-221" y="1924"/>
			<point x="-102" y="1955"/>
			<point x="-27" y="1955" type="qcurve" smooth="yes"/>
			<point x="89" y="1955"/>
			<point x="185" y="1869"/>
			<point x="186" y="1785" type="qcurve" smooth="yes"/>
			<point x="186" y="1697"/>
			<point x="92" y="1618"/>
			<point x="-12" y="1608" type="qcurve"/>
			<point x="-12" y="1554" type="line"/>
		</contour>
	</outline>
	<anchor name="_top" x="0" y="1536"/>
	<anchor name="top" x="0" y="1968"/>
</glyph>
<glyph name="hookcomb-stack.case" format="2">
	<outline>
		<contour>
			<point x="-50" y="1600" type="line"/>
			<point x="-50" y="1645" type="line" smooth="yes"/>
			<point x="-50" y="1682"/>
			<point x="-14" y="1716"/>
			<point x="37" y="1726" type="qcurve" smooth="yes"/>
			<point x="89" y="1739"/>
			<point x="129" y="1776"/>
			<point x="129" y="1812" type="qcurve" smooth="yes"/>
			<point x="129" y="1847"/>
			<point x="77" y="1879"/>
			<point x="23" y="1879" type="qcurve" smooth="yes"/>
			<point x="-32" y="1879"/>
			<point x="-124" y="1854"/>
			<point x="-140" y="1843" type="qcurve"/>
			<point x="-173" y="1925" type="line"/>
			<point x="-143" y="1942"/>
			<point x="-24" y="1972"/>
			<point x="42" y="1972" type="qcurve" smooth="yes"/>
			<point x="136" y="1972"/>
			<point x="234" y="1889"/>
			<point x="234" y="1817" type="qcurve" smooth="yes"/>
			<point x="234" y="1745"/>
			<point x="148" y="1664"/>
			<point x="51" y="1649" type="qcurve"/>
			<point x="51" y="1600" type="line"/>
		</contour>
	</outline>
	<anchor name="_top" x="0" y="1456"/>
	<anchor name="top" x="0" y="2014"/>
	<anchor name="_topright" x="0" y="1456"/>
</glyph>
<glyph name="hungarumlautcomb-stack.case" format="2">
	<outline>
		<contour>
			<point x="-233" y="1640" type="line"/>
			<point x="1" y="1962" type="line"/>
			<point x="112" y="1894" type="line"/>
			<point x="-136" y="1595" type="line"/>
		</contour>
		<contour>
			<point x="100.5132673082" y="1640.6753246753" type="line"/>
			<point x="335" y="1962" type="line"/>
			<point x="446" y="1894" type="line"/>
			<point x="197.9028776978" y="1595" type="line"/>
		</contour>
	</outline>
	<anchor name="_top" x="0" y="1456"/>
	<anchor name="top" x="0" y="1979.170212766"/>
</glyph>
<glyph name="hungarumlautcomb-stack" format="2">
	<outline>
		<contour>
			<point x="-234" y="1276" type="line"/>
			<point x="-17" y="1508" type="line"/>
			<point x="76" y="1435" type="line"/>
			<point x="-159" y="1218" type="line"/>
		</contour>
		<contour>
			<point x="77" y="1276" type="line"/>
			<point x="293" y="1508" type="line"/>
			<point x="386" y="1435" type="line"/>
			<point x="152" y="1218" type="line"/>
		</contour>
	</outline>
	<anchor name="_top" x="0" y="1052"/>
	<anchor name="top" x="0" y="1525.1914893617"/>
</glyph>
<glyph name="jdotless" format="2">
	<advance width="500"/>
	<outline>
		<contour>
			<point x="-64" y="-410" type="qcurve"/>
			<point x="-64" y="-296" type="line"/>
			<point x="-44" y="-303"/>
			<point x="29" y="-317"/>
			<point x="58" y="-317" type="qcurve" smooth="yes"/>
			<point x="124" y="-317"/>
			<point x="187" y="-230"/>
			<point x="187" y="-130" type="qcurve" smooth="yes"/>
			<point x="187" y="1052" type="line"/>
			<point x="313" y="1052" type="line"/>
			<point x="313" y="-90" type="line" smooth="yes"/>
			<point x="313" y="-282"/>
			<point x="201" y="-436"/>
			<point x="83" y="-436" type="qcurve" smooth="yes"/>
			<point x="48" y="-436"/>
			<point x="-39" y="-419"/>
		</contour>
	</outline>
	<anchor name="bottom" x="280" y="-436"/>
	<anchor name="top" x="250" y="1052"/>
</glyph>
<glyph name="nine.prop" format="2">
	<advance width="1136"/>
	<outline>
		<contour>
			<point x="70" y="1001" type="qcurve" smooth="yes"/>
			<point x="70" y="1221"/>
			<point x="329" y="1486"/>
			<point x="543" y="1486" type="qcurve" smooth="yes"/>
			<point x="760" y="1486"/>
			<point x="1046" y="1181"/>
			<point x="1046" y="842" type="qcurve" smooth="yes"/>
			<point x="1046" y="812" type="line" smooth="yes"/>
			<point x="1046" y="453"/>
			<point x="646" y="-27"/>
			<point x="265" y="-27" type="qcurve" smooth="yes"/>
			<point x="244" y="-27" type="line"/>
			<point x="244" y="94" type="line"/>
			<point x="264" y="94" type="line" smooth="yes"/>
			<point x="577" y="94"/>
			<point x="918" y="467"/>
			<point x="918" y="808" type="qcurve" smooth="yes"/>
			<point x="918" y="847" type="line" smooth="yes"/>
			<point x="918" y="1128"/>
			<point x="712" y="1366"/>
			<point x="543" y="1366" type="qcurve" smooth="yes"/>
			<point x="375" y="1366"/>
			<point x="199" y="1173"/>
			<point x="199" y="1001" type="qcurve" smooth="yes"/>
			<point x="199" y="829"/>
			<point x="376" y="633"/>
			<point x="544" y="633" type="qcurve" smooth="yes"/>
			<point x="702" y="633"/>
			<point x="923" y="831"/>
			<point x="923" y="954" type="qcurve"/>
			<point x="971" y="954" type="line"/>
			<point x="972" y="785"/>
			<point x="718" y="512"/>
			<point x="513" y="512" type="qcurve" smooth="yes"/>
			<point x="305" y="512"/>
			<point x="70" y="781"/>
		</contour>
	</outline>
</glyph>
<glyph name="ringcomb-stack.case" format="2">
	<outline>
		<contour>
			<point x="-195" y="1787" type="qcurve" smooth="yes"/>
			<point x="-195" y="1870"/>
			<point x="-85" y="1976"/>
			<point x="0" y="1976" type="qcurve" smooth="yes"/>
			<point x="86" y="1976"/>
			<point x="196" y="1870"/>
			<point x="196" y="1787" type="qcurve" smooth="yes"/>
			<point x="196" y="1705"/>
			<point x="86" y="1599"/>
			<point x="0" y="1599" type="qcurve"/>
			<point x="-85" y="1599"/>
			<point x="-195" y="1705"/>
		</contour>
		<contour>
			<point x="-110" y="1787" type="qcurve" smooth="yes"/>
			<point x="-110" y="1738"/>
			<point x="-50" y="1677"/>
			<point x="0" y="1677" type="qcurve" smooth="yes"/>
			<point x="53" y="1677"/>
			<point x="111" y="1736"/>
			<point x="111" y="1787" type="qcurve" smooth="yes"/>
			<point x="111" y="1837"/>
			<point x="51" y="1898"/>
			<point x="0" y="1898" type="qcurve" smooth="yes"/>
			<point x="-52" y="1898"/>
			<point x="-110" y="1840"/>
		</contour>
	</outline>
	<anchor name="_top" x="0" y="1456"/>
	<anchor name="top" x="0" y="1936.0319148936"/>
</glyph>
<glyph name="sha.bgr" format="2">
	<advance width="1764"/>
	<outline>
		<contour>
			<point x="1583" y="1052" type="line"/>
			<point x="1583" y="0" type="line"/>
			<point x="1469" y="0" type="line"/>
			<point x="1457" y="196" type="line"/>
			<point x="1457" y="1052" type="line"/>
		</contour>
		<contour>
			<point x="814" y="373" type="qcurve" smooth="yes"/>
			<point x="814" y="1052" type="line"/>
			<point x="941" y="1052" type="line"/>
			<point x="941" y="371" type="line" smooth="yes"/>
			<point x="941" y="215"/>
			<point x="1063" y="100"/>
			<point x="1170" y="100" type="qcurve" smooth="yes"/>
			<point x="1279" y="100"/>
			<point x="1435" y="220"/>
			<point x="1520" y="409" type="qcurve"/>
			<point x="1520" y="272" type="line"/>
			<point x="1462" y="122"/>
			<point x="1259" y="-20"/>
			<point x="1131" y="-20" type="qcurve" smooth="yes"/>
			<point x="987" y="-20"/>
			<point x="814" y="148"/>
		</contour>
		<contour>
			<point x="882" y="272" type="line"/>
			<point x="822" y="122"/>
			<point x="619" y="-20"/>
			<point x="494" y="-20" type="qcurve" smooth="yes"/>
			<point x="344" y="-20"/>
			<point x="171" y="147"/>
			<point x="171" y="373" type="qcurve" smooth="yes"/>
			<point x="171" y="1052" type="line"/>
			<point x="298" y="1052" type="line"/>
			<point x="298" y="371" type="line" smooth="yes"/>
			<point x="298" y="218"/>
			<point x="419" y="100"/>
			<point x="533" y="100" type="qcurve" smooth="yes"/>
			<point x="638" y="100"/>
			<point x="794" y="220"/>
			<point x="882" y="409" type="qcurve"/>
		</contour>
	</outline>
	<anchor name="cy_descender" x="1524" y="0"/>
</glyph>
<glyph name="tildecomb-stack.case" format="2">
	<outline>
		<contour>
			<point x="-342" y="1705" type="line"/>
			<point x="-310" y="1767"/>
			<point x="-197" y="1840"/>
			<point x="-133" y="1840" type="qcurve" smooth="yes"/>
			<point x="-96" y="1840"/>
			<point x="-20" y="1815"/>
			<point x="18" y="1787" type="qcurve" smooth="yes"/>
			<point x="50" y="1764"/>
			<point x="121" y="1726"/>
			<point x="158" y="1726" type="qcurve" smooth="yes"/>
			<point x="205" y="1726"/>
			<point x="260" y="1773"/>
			<point x="277" y="1816" type="qcurve"/>
			<point x="342" y="1754" type="line"/>
			<point x="317" y="1687"/>
			<point x="217" y="1617"/>
			<point x="152" y="1617" type="qcurve" smooth="yes"/>
			<point x="102" y="1617"/>
			<point x="21" y="1655"/>
			<point x="-11" y="1677" type="qcurve" smooth="yes"/>
			<point x="-45" y="1700"/>
			<point x="-115" y="1736"/>
			<point x="-144" y="1736" type="qcurve" smooth="yes"/>
			<point x="-187" y="1736"/>
			<point x="-258" y="1676"/>
			<point x="-275" y="1643" type="qcurve"/>
		</contour>
	</outline>
	<anchor name="_top" x="0" y="1456"/>
	<anchor name="top" x="0" y="1852.4255319149"/>
</glyph>
<glyph name="tildecomb-stack" format="2">
	<outline>
		<contour>
			<point x="-355" y="1292" type="line"/>
			<point x="-323" y="1347"/>
			<point x="-209" y="1433"/>
			<point x="-143" y="1433" type="qcurve" smooth="yes"/>
			<point x="-89" y="1433"/>
			<point x="-19" y="1406"/>
			<point x="18" y="1379" type="qcurve" smooth="yes"/>
			<point x="52" y="1354"/>
			<point x="120" y="1319"/>
			<point x="164" y="1319" type="qcurve" smooth="yes"/>
			<point x="211" y="1319"/>
			<point x="295" y="1376"/>
			<point x="322" y="1425" type="qcurve"/>
			<point x="378" y="1359" type="line"/>
			<point x="341" y="1286"/>
			<point x="219" y="1215"/>
			<point x="150" y="1215" type="qcurve" smooth="yes"/>
			<point x="98" y="1215"/>
			<point x="12" y="1248"/>
			<point x="-18" y="1271" type="qcurve" smooth="yes"/>
			<point x="-48" y="1295"/>
			<point x="-115" y="1328"/>
			<point x="-159" y="1328" type="qcurve" smooth="yes"/>
			<point x="-211" y="1328"/>
			<point x="-277" y="1264"/>
			<point x="-302" y="1229" type="qcurve"/>
		</contour>
	</outline>
	<anchor name="top" x="0" y="1439.7872340426"/>
	<anchor name="_top" x="0" y="1052"/>
</glyph>
<glyph name="tildecomb.case" format="2">
	<outline>
		<contour>
			<point x="-408" y="1701" type="line"/>
			<point x="-375" y="1768"/>
			<point x="-239" y="1868"/>
			<point x="-163" y="1868" type="qcurve" smooth="yes"/>
			<point x="-115" y="1868"/>
			<point x="-31" y="1835"/>
			<point x="13" y="1808" type="qcurve" smooth="yes"/>
			<point x="46" y="1789"/>
			<point x="147" y="1736"/>
			<point x="195" y="1736" type="qcurve" smooth="yes"/>
			<point x="248" y="1736"/>
			<point x="335" y="1794"/>
			<point x="360" y="1843" type="qcurve"/>
			<point x="406" y="1785" type="line"/>
			<point x="372" y="1707"/>
			<point x="247" y="1627"/>
			<point x="183" y="1627" type="qcurve" smooth="yes"/>
			<point x="129" y="1627"/>
			<point x="21" y="1676"/>
			<point x="-13" y="1697" type="qcurve" smooth="yes"/>
			<point x="-51" y="1721"/>
			<point x="-138" y="1760"/>
			<point x="-176" y="1760" type="qcurve" smooth="yes"/>
			<point x="-235" y="1760"/>
			<point x="-335" y="1684"/>
			<point x="-357" y="1643" type="qcurve"/>
		</contour>
	</outline>
	<anchor name="_top" x="0" y="1456"/>
	<anchor name="top" x="0" y="1892"/>
</glyph>
<glyph name="won.rvrn" format="2">
	<advance width="1796"/>
	<outline>
		<contour>
			<point x="513" y="-10" type="line"/>
			<point x="155" y="1456" type="line"/>
			<point x="273" y="1456" type="line"/>
			<point x="547" y="296" type="line"/>
			<point x="570" y="166" type="line"/>
			<point x="576" y="166" type="line"/>
			<point x="599" y="296" type="line" smooth="yes"/>
			<point x="832" y="1456" type="line"/>
			<point x="969" y="1456" type="line"/>
			<point x="1236" y="294" type="line"/>
			<point x="1259" y="166" type="line"/>
			<point x="1265" y="166" type="line"/>
			<point x="1286" y="294" type="line" smooth="yes"/>
			<point x="1528" y="1456" type="line"/>
			<point x="1639" y="1456" type="line"/>
			<point x="1320" y="-10" type="line"/>
			<point x="1197" y="-10" type="line"/>
			<point x="933" y="1169" type="line"/>
			<point x="906" y="1300" type="line"/>
			<point x="900" y="1300" type="line"/>
			<point x="875" y="1169" type="line" smooth="yes"/>
			<point x="637" y="-10" type="line"/>
		</contour>
		<contour>
			<point x="1486" y="992" type="line"/>
			<point x="1492" y="992" type="line"/>
			<point x="1492" y="1000" type="line"/>
			<point x="1710" y="1002" type="line"/>
			<point x="1710" y="897" type="line"/>
			<point x="1480" y="895" type="line"/>
			<point x="1480" y="899" type="line"/>
			<point x="1471" y="899" type="line"/>
		</contour>
		<contour>
			<point x="86" y="895" type="line"/>
			<point x="86" y="1000" type="line"/>
			<point x="325" y="1000" type="line"/>
			<point x="326" y="992" type="line"/>
			<point x="340" y="992" type="line"/>
			<point x="357" y="899" type="line"/>
			<point x="337" y="899" type="line"/>
			<point x="338" y="895" type="line"/>
		</contour>
		<contour>
			<point x="1403" y="637" type="line"/>
			<point x="1417" y="637" type="line"/>
			<point x="1417" y="641" type="line"/>
			<point x="1665" y="643" type="line"/>
			<point x="1665" y="538" type="line"/>
			<point x="1406" y="536" type="line"/>
			<point x="1406" y="544" type="line"/>
			<point x="1388" y="544" type="line"/>
		</contour>
		<contour>
			<point x="123" y="536" type="line"/>
			<point x="123" y="641" type="line"/>
			<point x="414" y="641" type="line"/>
			<point x="415" y="637" type="line"/>
			<point x="426" y="637" type="line"/>
			<point x="442" y="544" type="line"/>
			<point x="426" y="544" type="line"/>
			<point x="427" y="536" type="line"/>
		</contour>
	</outline>
</glyph>
<glyph name="zero.prop" format="2">
	<advance width="1156"/>
	<outline>
		<contour>
			<point x="142" y="460" type="qcurve" smooth="yes"/>
			<point x="142" y="996" type="line" smooth="yes"/>
			<point x="142" y="1221"/>
			<point x="357" y="1486"/>
			<point x="577" y="1486" type="qcurve" smooth="yes"/>
			<point x="796" y="1486"/>
			<point x="1014" y="1221"/>
			<point x="1014" y="996" type="qcurve" smooth="yes"/>
			<point x="1014" y="460" type="line" smooth="yes"/>
			<point x="1014" y="238"/>
			<point x="795" y="-30"/>
			<point x="577" y="-30" type="qcurve" smooth="yes"/>
			<point x="357" y="-30"/>
			<point x="142" y="238"/>
		</contour>
		<contour>
			<point x="274" y="450" type="line" smooth="yes"/>
			<point x="274" y="289"/>
			<point x="412" y="91"/>
			<point x="577" y="91" type="qcurve" smooth="yes"/>
			<point x="742" y="91"/>
			<point x="882" y="289"/>
			<point x="882" y="450" type="qcurve" smooth="yes"/>
			<point x="882" y="1006" type="line" smooth="yes"/>
			<point x="882" y="1168"/>
			<point x="742" y="1365"/>
			<point x="577" y="1365" type="qcurve" smooth="yes"/>
			<point x="412" y="1365"/>
			<point x="274" y="1168"/>
			<point x="274" y="1006" type="qcurve" smooth="yes"/>
		</contour>
	</outline>
</glyph>
